<?xml version="1.0" encoding="UTF-8"?>
<svg id="Layer_2" data-name="Layer 2" xmlns="http://www.w3.org/2000/svg" viewBox="0 0 731.51 661.45">
  <g id="Layer_1-2" data-name="Layer 1">
    <g>
      <g>
        <path d="M308.58-76.91c1.7.27,6.15,1.31,7.84,1.23.68-.04,1.42-.43,2.05-.43,2.25,0,4.23.77,6.06,1,2.75.36,5.52.33,8.33-.43.84.6,1.68,1.2,2.51,1.8,2.2.58,4.65-.37,6.78-.12.6.07,1.26.53,1.85.64,2.39.44,4.11.15,6.7,1.12.45.17.77.71,1.23.78,1.32.21,2.13-.36,4.06.15,5.07,1.33,10.96,1.99,15.92,4.57.69.35,3.44,3.25,3.68,3.29,1.01.12,1.37-.6,2.23-.79.93-.21,2.13-.03,3.1-.21.35,2.71-1.31,5.27-2.73,7.35-.29.42-.24,1.03-.62,1.43-.31.33-1.05.4-1.3.8-.35.55-.05,1.34-.27,1.74-.31.56-2.92.52-3.65.43-.15-.69-.3-1.38-.45-2.07.07-.39,2.12-.94,2.53-1.18.38-.22,2.86-2,2.96-2.15.91-1.34-3.84-.69-4.44-.57-.4.08-.67.55-.91.61-.28.07-1.71-.85-2.47-.34.04,1.11.09,2.22.13,3.33-1.49.54-1.99,2.24-3.24,2.98-.93-1.14-1.89-.46-3.06-.86-1.41-.94.35-2.76.84-3.76.37-.75.5-1.83.97-2.5.53-.75,3.98-1.12,1.51-2.81-1.38,1.37-3.65.57-5.1.96-.52.14-.42.72-.67.81-2.44.94-1.86-3.36-2.36-4.61-.17-.42-.74-.69-1.08-.98-1.04-.1-.3,2.45-1.11,3.06-.9-.09-1.02.68-1.26.8-.92.47-4.6,1.26-4.48,2.54.02.22,1.14.81.39,1.45-.31.27-2.55.58-3.05.55-.8-.05-1.35-1.21-2.26-.42-.08.07-1.05,1.5-1.04,1.63.15,1.16,1.43,1.23,1.68,1.91.24.64-.25,1.33,0,1.95.09.21,3.33,1.84,3.71,1.94.94.23.68,0,1.94.5,2.02.8,1.07.34,2.35.03.65-.15,1.27-.09,1.93-.32,1.67-.59,2.15-3.04,4.39-2.03,2.7,1.24.39,4.41,1.8,5.38.32.22.98.06,1.08.35.24.64-.14,1.89-.09,2.67.24,4.28.6,2.8,4.02,3.79.03.69.06,1.38.09,2.08-2.47,1.35-1.58-2.55-4.45-1.74-1.78.5-4.39,2.66-4.99,2.85-4.07,1.32-7.84,3.14-11.75,4.61-.22.08-.09.62-.26.64-.12,0-2.18-.51-2.36-.59-1.15-.49-1.26-2.49-1.69-2.45-1.05.56-.45,1.81-1.76,2.3-1.54.58-1.22-.54-2.05-.59-1.25-.07-2.72.86-3.01,2.13-.3,1.3,1.79.92,2.17.96.17.01,2.19.61,2.99.77.95.18,5.16,1.11,5.24,2.12.03.34-.41.86-.42,1.53-.01.52.38,3.98.53,4.2.57.6,1.78.29,2.18.48.36.17.69,1.58,2.12.89.49,1.17-.48,1.32-.61,1.62-.18.42.11,1.7-.46,2.3-1.36.83-3.2-.37-4.26-.06-1.8.54-2.89,1.4-4.33,2.27-.41.24-1.3.25-1.78.84-2.37-.02-.49-3.39-3.08-2.53-.92.31-2.31.76-3.17,1.11-.75.3-1.88,1.56-2.7,2-.78.42-2.36.69-3.24,1.32-.71.52-1.59,2.71-2.31,3.07-1.61.8-3.58-.54-5.25-.25-.15.74-.8,1.69-.15,2.25,1.22,1.1,3.01-.76,3.65-.8.38-.02.76.37,1.2.39,2.03.09,1.77-.92,2.84-1.85.5-.43,2.71-2.13,3.22-1.71.05,3.15,2.47,1.25,4.17,1.52,1.36.22,1.86,2.37.1,2.87-.84.24-1.34-.55-1.79-.22-.11.08-1.03,1.36-1.07,1.5-.57,1.91,1.52,1.62,2.3,1.89,1.1.39.91,1.29,2.96.62.43-.14,2.94-1.85,3.1-2.23.27-.66.08-1.6.96-2.23-.65-1.47-2.43.32-3.46-1.08.06-.3.11-.59.17-.89.76-1.21,1.51-2.42,2.28-3.63.4-.12,1.72.89,2.31.87.54-.02.9-.62,1.54-.8,2.33-.64,5.68-.2,7.98-.85.77-.22,4.5-3.49,6.12-4.05,2.1-.73,3.6.16,5.79-1.1.95-.54,1.6-.97,2.78-.83-.14-.92-.04-1.95-.24-2.84-.21-.94-1.69-1.89.35-2.35.06-.55.11-1.1.17-1.65,1.65-1.07,1.73,1.59,3.29.82.42-.21.3-.75.48-1.11.09-.17.43-.12.44-.14.08-.15-1.86-1.86.55-2.43,1.94-.46,2.92.06,4.54.32.91.14,2.5-.64,2.45.94-.03,1.14-1.54,2.12-1.56,2.28-.18,1.1,1.1,1.94.75,3.51-.12.55-2.12,1.95-2.7,1.81-2.23-.54.31-2.97-1.48-3.47-1.27-.35-1.79.53-2.15.55-.19.01-.54-.42-.88-.43-1.57-.01-2.5-.16-3.39,1.29-.2.97,1.66,1.74,2,2.42.58,1.16-1.54,3.73-1.7,4.54-.17.85.21,1.99.15,2.93-.16,2.6-3.01,1.71-2.68,4.69,1.77,1.09,2.89.78,3.52-1.24.55.18,1.09.37,1.64.56.78.9-1.32,2.51-1.96,2.63,1.44,1.22,2.51,2.82,3.09,4.68-.77.26-.35.89-.56,1.32-.57,1.17-1.51.59-2.43.81-1.12.28-1.14,1.62-1.59,2.34-1.08,1.73-1.63-.45-2.39-.57-.09-.01-1.74.07-1.83.1-.08.02-1.31.93-1.36,1-.14.17-.66,2.13-.62,2.46.09.67,1.96,3.9,1.62,4.32-.38.06-.74.06-1.13-.03-.51-.11-3.16-.88-3.53-1.06-.44-.21-.51-.94-.81-1-.63-.12-1.67.39-2.25.02-.4-.26-1.16-2.16-1.06-2.77-1.45-.14-2.04,1.04-3.56.87-.81-.1-5.3-2.1-5.7-2.73-.3-.48-.2-1.08-.57-1.59-.81-1.11-2.92-1.18-4.06-.85-.61.18-.78.69-1.83.82-1.21.15-2.17-.73-3.36-.11-.17.09-1.73,2.84-2.21,3.23-.58.48-1.04.39-1.35.65-.6.5-.9,1.49-1.1,2.24-1.59.1-3.18.2-4.77.32-.27-.05-1.01-.91-1.11-1.18-.14-.37.18-1.56-.38-1.46-.12.02-1.44,1.56-1.81,1.86-.36.29-.88.25-1.26.52-.56.41-.89,2.15-1.77,1.16-.49-.55-.36-1.87-1.27-1.94-1.01-.08-1.52,1.22-2.19,1.48-1.77.69-3.48-.13-4.28,2.72-.34,1.22.54,2.06.39,3.26-.09.74-1.28,1.35-.95,2.24.46.57.84-.06,1.42-.09,6.59-.33,17.44-2.81,23.63-4.91.98-.34,4.18.47,5.45.55,2.11.11,4.73-.64,6.92-.66.57,0,1.03.52,1.32.44,1.07-.28,3.19-1.78,4.44-2.06.72-.17,3.27-.39,3.78,0,.34.26.45.97.76,1.33.37.43,1.07.85,1.3,1.29.23.43.66,2.36.94,2.59.87-.18,1.51.49,2.25.56,1.8.18,4.01-.44,5.85-.23.41.05.77.57,1.12.56.55-.02,2.1-1.28,2.71-1.28-.16-1.11-.32-2.22-.49-3.33-1.09.35-2.41.53-3.57.39-1.13-.14-1.94-1.02-2.87-1.29-.64-.19-1.96.32-2.01-.74-.03-.53.62-1.1.38-2.45-.11-.62-.68-.26-.65-.85.37-.68.75-1.35,1.13-2.03,1.17-.44,1.97.55,2.96.51,1.4-.06,1.07-1.3,3-.03.28.19.73,1,.92,1.04,1.05-.02,2.09-.03,3.14-.04.43.58.85,1.15,1.27,1.73.85-.42,1.69-.84,2.54-1.26.52.54,1.42,1.88,2.01,2.16.55.25,1.22.19,1.47.34.18.11.27.8.66,1.02.37.21.79-.11,1.08.02.7.31,1.98,1.41,2.7,1.61.8.22,2.09-1.2,3.27-.39.15,1.35,2.11,4.52.74,5.29-1.24.65-2.11-.2-3.1-.51-.39-.12-.87.07-1.27-.03-.23-.06-.07-.86-1.13-.62-.73.17-.84.98-1.35,1.16-.81.28-1.98-.11-2.85.07-1.32.27-3.91,1.91-5.74,2.44-.64.18-4.62,1.31-4.88,1.27-2.29-.37-5.27-2.05-7.58-1.48-.42.1-.69.54-1.27.66-1.27.26-4.69.21-5.69-.88-1.54-1.69,1.73-4.33,1.33-4.9-.94-.65-1.73-.31-2.57-.45-4.45-.71-3.78.34-7.38,1.2-2.82.68-6.74.18-9.57.91-.5.13-.19.59-.69.71-4.81,1.22-9.97,1.59-14.86,3.09-3.37.96-16.61,3.21-20.11,3.49-.49.03-.43-.45-.64-.46-2.27-.07-4.51.4-6.94.39-1.71-.02-5.89-.05-7.33-.66-.73-.32-2.09-1.65-2.65-1.75-.6-.12-3.56.08-4.13.36-.44.21-.65.79-1.17.87-1.23.19-3.82-.46-5.01-.32-1.18.13-2.75,1.01-3.8,1.06-.21,0-.26-.43-.47-.42-1.99.12-4.19.42-6.34.76-2.41.38-5.89,2.47-8.19,2.29-.4-.03-.76-.35-1.24-.37-3.52-.13-6.67,1.72-10.21,2.21-.49.07-.88-.22-1.42-.04-.46.15-.19.59-.4.72-.4.26-1.71.71-2.21.82-2.51.54-5.86.51-8.36,1.1-2.54.6-5.27.87-7.67,1.55-1.06.3-2.17,1.09-3.21,1.36-.89.23-1.95-.65-2.98-.31-.94.87-1.87,1.75-2.8,2.63.3,1.25.48,2.37-.24,3.64-2.49,1.46-4.98.1-4.39-2.79.16-.3,2.21-.97,2.76-1.35.63-.44.55-1.13.98-1.48.91-.75,3.2-1.47,4.24-2.31.68-.54,1.29-2.63,1.75-3.37.24-.38.87-1.27,1.29-1.9.18-.28,1.43-2.06,1.54-2.14.38-.28.99.02,1.6-.15.98-.29,4.67-1.85,5.55-2.38,1.47-.9,1.53-2.92,3.29-3.27.67.55,1.34,1.11,2.01,1.67,1.6-.63,3.2-1.24,4.81-1.85.57-1.23,1.17-1.3,2.05-2,.07-.06-.04-.44.1-.51.75-.39,2.53.62,3.47-.17-.86-.83.82-2.96,1.53-3.34.52-.28,1.03-.15,1.39-.29.84-.33,1.67-1.21,3.21-1.64.9-.25,3.16.06,3.37-.03.48-.22.53-.76.78-.97.46-.36,1.84-1.14,2.37-1.25,1.04-.23,1.23.48,1.86.46,1.13-.03,2.09-.63,2.49-1.73-1.13-.75-2.85,0-4.03-.01-1.45-.02-4.64-.1-5.96-.26-.18-.02-2.25-.62-2.33-.7-.19-.19-.21-.58-.37-.75-.2-.21-.49.03-.66-.38-.3-.72-.86-3.1-.41-3.79.23-.35,1.72-1.07,2.16-1.2.67-.19,1.05.19,1.46.07.18-.05-.14-.47.37-.72,2.35-1.18,6.47-.82,4.26-4.21-.25-.21-3.93,1.08-4.64,1.23-1.05.19-6.04.68-6.67.28-.55-.36-.98-1.35-.52-2.03,1.26-.74,2.11.17,3.31.05.38-.04,2.85-.6,2.98-.74.9-.97-.5-4.03-.72-5.09-.37-.52-1.05.05-1.63.05-.81,0-1.08-1.31-1.19-1.97-.23-.12-1.61,1.34-2.29.88-.54-.37-.03-.82,0-1.14.09-.94-2.47.53-3.04.62-.21.03-.27-.37-.51-.34-3.3.42-6.26,2.14-9.66,1.76-1.22-.14-3.45-.39-2.37-2.1.14-.23,3.58-3.51,3.89-3.73,2.51-1.78,8.63-3.44,11.63-3.9.79-.13,1.88-.31,2.6-.1.15.55-4.05,2.02-4.65,2.22-1.48.46-3.42.48-4.76,1.07-1.03.45-4.59,3.23-5.64,4.11-.29.24-.51.49-.65.83.19.66,4.77.23,5.57.03.44-.12,3.58-1.13,3.75-1.24.42-.28.66-1.38,1.21-1.71.29-.17.8.12,1.34-.06,3.62-1.19,7.23-3.61,10.54-5.35,1.02-.54,2.59-.72,3.48-1.26.21-.13-.04-.49.45-.73,1.44-.71,2.92-.36,3.42-.59.24-.11,2.62-1.39,2.88-1.54.21-.13.03-.59.2-.64.4-.12.76.24,1.23.16.95-.16,2.12-.88,2.98-.96,3.75-.32,5.36-.43,9.52-1.25,3.31-.64,6.77-.3,9.99-.35,3.92-.07,8.29-1.11,11.82-.55.1.02.17.38.36.38.68,0,1.59-.46,2.32-.54-.5-1.22.5-2.52,1.3-3.48.56-.67,1.52-.41.59-2.23-.33-.65-1.14-.41-1.67-.67-.99-.5-1.62-1.57-2.89-.6-1.25.96.42.96.28,1.65-.13.16-.27.32-.4.48-1.34.78-3.1.25-3.35.35-.84.36-1.43,1.25-2.99,1.27-.2,0-.27-.36-.37-.37-1.44-.18-3.14-1.25-3.75-1.31-.56-.06-1.12.32-1.71.31-2.58-.04-4.28-2.46-5.82-4.12-.19-.95,1.05-2.28,1.87-2.8,1.24-.79,1.9-1.14,3.18-2.05,3.43-2.44,7.2-4.7,10.92-6.75.24-.14.84-.18.54-.65-.58-.88-1.74-.11-2.5-.08-.2,0-.27-.36-.38-.37-2.4-.29-6.96.62-9.21-.02-.42-.12-1.86-.84-2.03-1.15-.55-.96,1.03-3.39-.88-1.82.17,1.45.23,1.97-1.24,2.86-.78-.32-1.55-.63-2.33-.94-1.9,1.91-4.71,1.37-6.94.9-.49-.1-.64-.59-.85-.63-.25-.05-1.5.33-1.8-.25-.89-1.74.5-1.85,1.38-2.78.84-.88,1.62-2.32,2.75-2.89,1.49-.75,4.34-1.77,4.82.12.47-.13.94-.26,1.41-.39-.08-.8-1.25-.57-1.18-1.42.04-.55,1-1.59,1.05-1.75.15-.56.03-3.01.31-3.32,1-.71,2.6-.69,3.58-1.23.1-.05,1.14-1.3,1.4-1.53,1.85-1.67,5.31-4.78,7.82-5.95,1.45-.68,3.32-.76,4.62-1.37.63-.3.7-.92,1.34-1.22.55-.26,3.26-.97,3.79-.95.45.01.72.49,1.38.45,1.22-.09,3.51-1.21,4.52-1.04ZM303.34-71.92c-.6.31-2.39.12-1.96,1.08.6-.32,2.38-.12,1.96-1.08ZM298.63-68.96c-.65.16-1.56.26-1.66,1.02.59-.16,1.17-.31,1.76-.47-.03-.18-.07-.36-.1-.55ZM327.21-68.85c-1.27.59-.35,2.04.7,1.56,1.27-.58.36-2.05-.7-1.56ZM326.55-59.07c-.69.33-1.38.66-2.07.99-.68,1.65,2.41,1.11,2.44-.08-.12-.3-.24-.61-.37-.91ZM343.9-60.87c-.83.12-1.65.25-2.48.38-.54,1.77,2.67,1.24,2.48-.38ZM296.2-43.86c-.85,0-1.74-.68-2.29.45-.04.9,2.24.48,2.29-.45ZM338.17-39.58c.65-1.26-.2-1.62-.47-2.89-1.04.07-2.09.14-3.13.22-.73,1.14-3.14,1.75-2.36,3.61,2.33.04,3.61-2.06,5.96-.94ZM343.23-43.56c-.57.13-1.13.26-1.7.39.35.19.69.38,1.04.57.22-.32.44-.64.66-.96ZM347.49-41.76c1.05-.14.96-1.01-.09-.88.03.29.06.58.09.88ZM273.59-24.9c-.06-.06-1.11-.28-1.26-.21-.17.36-.35.72-.52,1.09.82.88,2.84.23,1.78-.88ZM348.47-40.37c-.85,0-1.49-.63-2.4-.31-.08.03-1.17,1.14-1.19,1.23-.91,3.86,4.2,2.12,3.59-.91ZM351.41-40.16c-.36-.78-1.32-.64-1.72.06.57-.02,1.15-.04,1.72-.06ZM254.12-9.24c-.34-.06-.99.25-1.13.61.12.61.23,1.22.35,1.83,1.09-.29,2.17-.57,3.26-.84-.42-.81-1.19-.75-1.87-1.03-.3-.12-.52-.55-.62-.57ZM326.86-26.26c-.89-.08-1.62-.56-2.55-.2.08.57.16,1.14.23,1.72.84-.15,1.67-.29,2.51-.43-.07-.36-.13-.73-.2-1.09ZM330.21-26.76c-.68-.26-1.22.33-1.52.89.03.19,3.04,1.8,3.4.81.08-.41.16-.82.25-1.24-.57-.17-1.29.04-1.79-.04-.25-.04-.27-.4-.34-.42ZM271.31-12.59c-.31-.05-.55.01-.84.17-.19.33-.37.67-.56,1,1.45.34,2.15,1.94,4.07,1.81,2.23-.14,3.91-4.36,1.81-4.36-1.83,0-2.65,1.65-4.14,1.73-.21.01-.28-.35-.35-.36ZM263.18-6.75c-.91.2-1.83.41-2.74.62.81.95,1.78.64,2.92.16-.06-.26-.12-.52-.18-.78ZM270.7-9.11c-.6.09-1.21.18-1.81.28,0,.19,0,.37-.01.56.61-.28,1.22-.56,1.82-.84ZM298.09-13.22c-.68-.13-1.66.23-1.43,1.09,1.02.09,1.96.54,2.41-.84-.59.41-.91-.24-.98-.25ZM302.07-13.64c-1.64.6,1.21.98,1.6,1.08-.1-.27-.2-.53-.31-.8-.59.07-1.25.61-1.29-.28ZM258.69,4.16c.14,0,2.54-.21,2.83-.26,2.1-.38,2.93-2.19.74-2.75-.69-.17-1.26.56-2.03.59-1.49.05-3.13-1.45-4.17-1.65-1.9-.36-2.96,1.45-4.39,2.41,0,.61.18,1.16.73,1.39.18.07,3.71.53,3.93.52,1.21-.13,1.15-.35,2.36-.24ZM295.55-10.43c-.43-.28-.85-.56-1.28-.84.03.89.48,1.16,1.28.84ZM268.75-3.72c-.35.14-1.83.22-1.18,1.06.42.56,1.48-.54,1.18-1.06ZM316.01-14.71c-.13-.09-2.71.4-3.06.55-.06.03-.88.89-.91.95-.85,1.32,1.25,3.72,2.13,3.73.68,0,1.44-.37,2.17-.38.42,0,.78.34,1.2.34,2.16-.02,2.71-.73,4.29-1.94.03-2.97-2.85-.27-5.06-2.1-.47-.39-.69-1.11-.75-1.15ZM281.66-5.43c-1.03.67.65,2.72,1.45,2.95.97-.88,1.95-1.75,2.92-2.63-.08-1.32-.88-.43-1.28-.42-.39.01-.65-.47-1.26-.43-.57.03-1.27.34-1.83.53ZM267.77,2.95c.16.02,2.6-.25,3.12-.3,3.1-.31,2.8-3.57.84-3.56-.6,0-4.39,1.14-5,1.46-.92.47-1.42,1.94-.21,2.15.31.06,1.15.23,1.25.24ZM307.22-8.12c-.63.13-1.27.26-1.9.39.06,3.12,2.78,2.21,1.9-.39ZM279.3-.86c-.44.12-.89.24-1.33.37.04.18.07.35.11.53.44-.12.89-.25,1.33-.37-.04-.18-.07-.36-.11-.53ZM315.99-3.72c-.61-1.75.13-2.53,1.1-3.83-.97-.26-1.93-.52-2.9-.77-.95,1.44.46,2.33.4,2.91-.05.48-1.01,1.15-.51,2.03.63-.11,1.26-.23,1.9-.34ZM265.13,6.69c-.65,0-1.29.01-1.94.02.16,1.22,1.16,1.17,2.14.73-.07-.25-.13-.5-.2-.75ZM272.56,5.84c1.14-.16,2.01.64,2.61-.88-.07-.38-2.78-.34-2.61.88ZM308.1-2.15c-.71-.1-1.91.19-2.49.67-.45.53.19,4.05-1.17,4.25-.75.11-.73-.91-1.51-.5-1.05,2.18,1.02,1.48,2.13,1.64.47.07.78.62,1.25.54.17-.03,2.85-1.87,3-2.02.76-.8.46-2.38.17-3.37-.03-.12-1.3-1.21-1.39-1.22ZM352.42-6.82c-.86-.04-1.89.21-1.8,1.35.47.16.95.31,1.42.47.13-.61.25-1.22.38-1.82ZM245.14,18.21c-.52.02-3.17.95-3.61,1.25-.08.06-.93,1.28-1.14,1.5-.14.15-.6.15-.74.35-.23.31-.37,2.02.53,2.09,1.82.15,4.56-2.14,6.27-2.71-.18-.7-.45-2.53-1.3-2.49ZM359.16-2.27c2.36-.51,1.67-5.18-.6-3.71-1.19.77-.02,2.83.6,3.71ZM227.3,27.53c1.5.11,3.64-2.74,1.59-2.51-1.75.2-1.75,1.05-1.59,2.51ZM234.08,22.9c-.85-.32-2.86,3.04-.27,3.38,1.33.18,3.26-1.09,4.36-1.98-.37-1.64-1.5-.59-2.45-.44-.07,0-1.22-.3-1.28-.33-.21-.14-.27-.59-.37-.63ZM225.57,27.43c-.49.25-.98.5-1.47.75.58.36,1.43.02,1.47-.75ZM317.19.72c-.76,1.07,5.52,3.33,3.79.53-.84-1.36-2.56-.77-3.79-.53ZM248.76,20.99c-.23.62,1.73.89,2.11.85,2.64-.25,3.21-3.51.39-3.67-.83.94-1.67,1.88-2.49,2.81ZM358.88,1.31c.13-.79.25-1.59.38-2.38-.75.61-1.44,1.37-1.15,2.48.26-.03.51-.06.77-.1ZM282.87,14.05c-.34.13-.68.27-1.02.4.37.34.66.32,1.12.14-.04-.18-.07-.36-.11-.54ZM318.67,7.16c-.44.07-.89.14-1.33.22.03.19.05.38.08.56.51-.04,1.18-.11,1.25-.78ZM354.23,6.78c-.27.02-.54.04-.8.06.02.2.04.39.05.59.27-.02.54-.04.8-.06-.02-.2-.04-.39-.05-.59ZM296.57,20.23c-.24-1.83-1.31-3.71-3.28-2.7-.19.1-.07.53-.26.62-.32.15-1.82.42-1.78,1.14.05.97,1.4.93,2.15,1.1.2.04.3.41.49.42.79.01,1.84-.5,2.68-.57ZM304.44,17.53c-1.38-.28-2.7-.73-3.46.91-.95,2.05.8,1.01,1.43,1.02.28,0,.59.36.83.37,1.75.05,1.72-.61,1.2-2.3ZM378.28,15.8c.13-2.33-3.77-2.07-5.05-1.76-.76.18-1.09,1.63-1.04,2.46,2.15.14,3.83-1.12,6.1-.69Z"/>
        <path d="M206.09-13.29c1.07,1.56-.33,1.52-.58,3-.7.19-1.4.38-2.1.57-.44-.21-.02-3.99,1.3-3.97-.08-.23-.16-.47-.24-.7-1.21.7-2.42,1.41-3.63,2.12-.58-.33-.77-2.04-1.5-1.96-.55.07-.16.88-.55,1.52-.53.86-2.05,1.59-2.35,2.32.11.27.22.53.33.8-1.25.82-2.44.79-3.33,2.06.07.65,1.05.38,1.32.65.21.2.01.72.34.92.18.1,3.26,0,3.54-.08,1.63-.5,2.59-3.41,4.09-2.67.8.4.27,1.17.58,1.6.19.25.79.17.99.43.32.42-.08,2.16.83,2.28,2.39-1.22,2.94,1.12,1.03.71-.35-.07-.58-.73-1.26-.18-2.76,2.43-5.48,4.88-8.19,7.34-1.05.45-1.75.26-1.97-.75-.84.22-.23,1-.88,1.53-.58.48-2.14.31-2.43,1.61-.19.39.03.45.35.49,1,.1,4.24-1.4,5.06-.91.33.92.66,1.85.98,2.77.81-.15,1.62-.3,2.43-.44.11,2.66-.76,1.94-2.41,2.9-.85.5-2.73,2.03-2.92,2.87-.67-.06-1-.4-1.15-1.03-.1-.03-1.74,1.15-2.03,1.39-.94.76-2.77,2.62-3.37,3.59-.18.29-.06.8-.39,1.12-.65.63-2.06.66-2.85,1.05-.43,2.28.99.58,1.86.09.44-.25.95-.24,1.3-.47.41-.26,1.75-2.92,2.12-2.79.21.3.42.6.63.9.59.04,2-1.3,2.45-.79.87.98-3.11,2.11-1.5,2.86,1.04.48,3.23-.68,3.91-1.98,1.48-2.82-.96-.67-1.32-1.19.27-.81.54-1.63.81-2.45.39-.38.88-.04,1.17-.13.27-.09.52-.74,1.05-1.06,1.14-.7,2.78-1.21,3.82-1.96.71-.51,1.71-2.23,2.67-2.91,1.37-.97,2.99-1.48,4.25-2.72.04-.75-.81-1.31-.92-1.83-.02-.07.64-1.16.55-1.55.48-.05.97-.1,1.45-.15.47-.52-.16-.88,0-1.25.5-1.21,2.86-1.41,3.91-1.99.45,1.26-.7,2,.42,3.19,0,.44-.85,1.34-1.37,1.24-.58-.08-.03-1.24-.86-1.08-.52.09-3.49,1.58-3.26,2.23,2.16.26,1.07,1.38,1.05,2.86,0,.61.48,1.28.3,1.93-.13.49-1.39,1.01-.86,1.96,1.22.29,1.72-1.79,2.49-1.46.34.15-.39,1.27-.24,1.61.09.21,1.31,1.27,1.74,1.1-.15,1.58-1.24,1.55-1.76,2.32-.21.31-.16,1.12-.44,1.32-.24.17-.77-.12-1.18.01-1.28.42-1.8,1.34-1.36,2.43.36.47.71.93,1.07,1.4-.26.39-.63.32-.97.41-.31.07-2.98.49-3.14.49-.5-.02-.72-.84-1.04-.74-.91.29-1,1-2.74,1.1-1.28.08-1.82-.33-2.76-.73-1.12-.48-1.94.67-2.83,1.18-.41.23-.95.18-1.34.42-.16.1-1.96,2.71-2.15,3.05-.28.48-.03,1.06-.63,1.44-.94.59-2.87,1.09-2.97-.3-.12-.06-1.71,2.5-1.82,2.63-.54.61-.57-.92-1.18-.7-1.03,1.48-3.03,1.67-3.05,3.63,0,.48.51.63.56,1.1.07.59-1.16,1.82.33,1.09,4.46-2.16,8.24-5.43,12.29-7.49,1.95-.99,4.83-1.61,6.92-2.81,1.09-.63,2.7-2.81,4.16-2.5.73.15,1.71,1.46,2.05,1.47.85.02,5.29-1.86,6.01-2.81-.21-.46-.41-.91-.62-1.37-1.27,1.54-2.74.71-4.2,1.41-.21-.88-1.34-1.99-.19-2.86.34-.26.89-.2,1.3-.38,1.59-.7.93-.33,2.22-.56,1.08-.19,1.48-1.02,2.58-.05,1.28-1.6,1.23-.66,2.28-.63,1.69.04,3.63,0,5.17-1,2.77,3.35-.36,2.12-2.05,3.07-1.05.59-2.77,2.32-3.9,3.13-3.3,2.37-5.17,2.46-8.51,4.2-2.39,1.25-3.84.92-2.24-1.8-2.15-.3-3.77,1.6-5.42,2.54-3.97,2.26-7.79,4.51-11.62,6.88-5.32,3.28-12.45,7.73-18.21,8.87-3.18.63-1.54-.5-5.3,1.59-1.57.88-4.63,1.7-6.34,2.59-1.55.8-4.28,3.13-5.65,3.42-2.51.53-1.98.54-4.41,1.95-4.4,2.57-9.01,5.16-13.47,7.61-.57.31-1.13.1-1.7.49-.27.19-1.38,1.49-1.41,1.68-.09.53.87,1.26-.31,2.09-1.21.85-2.05.02-2.07-1.08.99-.95,3.4-3.1,4.1-4.16.47-.72,1.03-3.12,1.72-3.82.54-.56,2.5-1.47,3.47-2.38.84-.79.69-1.73,1.66-2.31.42.14.84.27,1.27.41,1.81-.68,2.46-2.47,3.48-3.19.4-.29,1.49-.34,1.64-.7.03-.07-.33-.47-.02-1.05.19-.36,1.52-1.6,1.91-1.9,1.04-.78,1.9-.8,2.55-1.24,1.3-.89.5-.94,2.66-1.84.89-.37,1.62-1.33.59-1.1-1.91.42-6.47,2.92-6.9.27-.24-1.49.67-1.47,1.33-2.01.59-.48,3.98-3.07,3.87-3.55-.93-.65-1.8-1.91-3.31-.86.11.46.23.93.34,1.39-.42.18-.84.36-1.26.54-.68-.05-.63-3.56-2.38-2.33-.37-.44-.74-.87-1.1-1.31-.72.05-1.56,1.92-2.62,1.34.17-.42.33-.83.5-1.25,1.04.17.91-.64,1.44-1.08,2.11-1.77,4.35-3.7,6.53-5.36,6.34-4.83,14.18-7.03,21.16-9.85,1.59-.64.81-.77,1.03-1.57.23-.81,1.19-1.19.46-1.85-.38-.33-1.69-.23-2.28.09-.87.47.51.56-.17,1.19-1.12.44-2.04,1.39-3.13,1.76-.21.06-3.92.59-4.12.59-.83-.02-2.43-.71-2.21-1.68.23-1.09,6.43-6.64,7.47-8.03-1.86.03-4.05,1.62-5.86,1.95-.58.11-1.72-.24-1.94-.12-.23.13-.39.68-.62.81-.3.18-.95-.27-1.38-.07-.32.15-.67.69-1.13.95-.93.51-4.7,1.54-3.72-.22.76-1.36,1.78-3.1,3.41-3.48.73-.17.3,1,1.38,0-1.39-.28-.01-1.94-.7-3.07,1.99-.88,2.36-2.25,3.51-3.64,2.5-2.99,5.89-5.92,9.56-7.38.3-.12,3.22-.46,4.17-.74,2.64-.78,5.87-2.28,8.3-2.99.46-.13.99.25,1.69.11,1.27-.25,3.33-1,4.93-1.36,3.12-.71,6.48-1.81,9.58-2.28,2.39-.37,4.76-.39,6.83.31.9-.52,1.79-1.03,2.69-1.55.69.22-.44,3.65-.73,4.35-.26.61-1,.99-.68,1.8-.6.31-1.21.62-1.81.93-.09-.31-.18-.62-.27-.93.88-.74,1.86-1.63,2.13-2.74-1.24.61-2.49,1.22-3.73,1.84ZM183.55-9.72c-.09.19-.17.37-.26.56.26-.01.52-.02.78-.04.09-.19.17-.37.26-.56-.26.01-.52.02-.78.03ZM183.44-3.91c1.75-.79,1.23-1.92-.17-.44.06.15.12.29.17.44ZM192.76-9.37c-.44.24-.88.47-1.31.71.06.15.11.3.17.45.51-.24,1.17-.56,1.14-1.17ZM191.29.23c-1.01,0-3.17,2.64-2.3,2.86,1-.64,2-1.28,3.01-1.92-.24-.31-.47-.63-.71-.94ZM160.42,20.8c.3-.68-1.42-.29-1.12.33.1.21,1.02-.09,1.12-.33ZM196.93.4c.07-.09.46-1.49-.14-1.38-2.63.62-.99,2.81.14,1.38ZM187.49,9.66c-.45.16-.9.32-1.36.48.09.22.17.45.26.67.42-.24.85-.47,1.27-.71-.06-.15-.11-.3-.17-.44ZM188.89,8.89c-.63,1.14,1.43.82,1.61-.21-.54.07-1.08.14-1.61.21ZM159.57,26.84c-.3.28-.66,2.12-.3,2.43.42.37,2.33-.95,2.76-1.5.21-.27.93-2.16.81-2.42-.41-.92-1.7.65-2.24,1.04-.3.22-.82.25-1.04.45ZM155.71,29.9c-2.16,1.25-1.25,2.53.59,1.24-.2-.41-.39-.83-.59-1.24ZM176.82,20.16c-1.6.95-3.2,1.01-4.35,2.55-.2.26-.52.17-.16.66,1.95-.14,3.07-1.4,4.89-2.38-.13-.28-.26-.55-.38-.83ZM150.97,37.22c-.27,1.47,4.78-.83,5.55-1.33.91-.61.84-1.36-.1-1.15-.48.1-.97.52-1.5.65-1.09.28-1.46-.66-2.83.51-.16.14-1.11,1.25-1.12,1.32ZM182.98,17.15c-.57.02-1.69.98-1.93,1.59-.49,2.32,6.2-.21,4.78-1.9-1.34,1.36-2.33.29-2.85.31ZM168.26,26.95c-.85.44-1.69.88-2.54,1.32.85,2.47,3.18-1.23,2.54-1.32ZM158.67,33.68c-1.72,1.82,3.87-.04,3.64-1.2-.26-1.29-2.97.49-3.64,1.2ZM179.08,21.79c-.33.19-.66.39-.99.58.23.9.51,1.22,1.15.15-.05-.24-.1-.49-.16-.73ZM184.11,22.15c-.31-.63-.24-1.15.19-1.86-.57.1-1.14.19-1.71.29.55.78.68,1.08.55,2.13.32-.19.65-.38.97-.57ZM158.36,36.83c-.35.14-.7.28-1.05.42.19.56.71.44,1.25-.01-.06-.14-.13-.27-.19-.41ZM163.37,34.11c-.52.35-1.2.27-1.11.98.57-.26,1.16-.21,1.11-.98ZM177.79,28.22c1.18-.23,2.38-.58,3.21-1.72.89-1.22-.57-2.81-1.91-1.43-.07.72-.14,1.43-.21,2.14-.46.13-.92.26-1.37.39.09.21.19.41.28.62ZM202.5,13.18c-.19-.06-.69.57-.63.73.23.64,1.14-.57.63-.73ZM149.64,46.79c-.34-2.45-4.25,1.1-3.13,2.5,1.04-.84,2.08-1.67,3.13-2.5ZM205.85,12.06c-.7.81.43,1.83,1.07,1.39.58-.78-.17-2.15-1.07-1.39ZM140.06,53.41c1.71-.93,1.52-2.35-.15-.94.05.31.1.63.15.94ZM143.34,49.93c-2.17,2.83,2.41,1.97,2.04-.38-.77.43-1.83,1.39-2.04.38ZM187.35,24.16c-.21-.3-.42-.59-.63-.89-.51.25-1.03.49-1.54.74.24.08.48.17.73.25.48-.04.97-.07,1.45-.11ZM151.87,45.03c-1.71,1.49.01,2.56,1.26.75.47-.96-.5-1.41-1.26-.75ZM206.85,15.4c-.02-.35-.05-.71-.07-1.06-.18.32-.37.64-.55.96.04.12.08.23.12.35.17-.08.33-.16.5-.24ZM176.05,37.13c-.62-1.56-1.95-.84-2.73.69-.04.43,1.01.15,1.23.07.54-.19,1.01-.41,1.49-.76ZM179.96,34.35c-.96.05-1.97.69-1.64,1.72.67-.3,1.35-.6,2.03-.9-.13-.27-.26-.55-.38-.82ZM218.39,17.39c-.21-.16-.43-.32-.64-.49-.74.31-1.48.63-2.21.95-.04.38-.07.77-.11,1.15.99-.54,1.97-1.08,2.96-1.62Z"/>
        <path d="M486.1,19.02c-.11.01-1.08.96-1.02,1.1.46.28.9.69,1.32,1.07,4.36,3.96,8.38,3.38,13.11,5.67,2.83,1.38,5.26,1.86,7.78,3.11.49.24.19.73.68.98.83.41,3.34,1.25,4.19,1.39.5.09.31-.57.82-.48,1.05.18,2.31.98,3.4,1.18,1.12,2.04,2.66,4.92,4.6,3.27-.5-.75-1.55-3.61-2.13-3.8-.42-.14-1.07.68-1.87.08-.15-.69-.3-1.39-.45-2.08,1.23-1.05,2.47-2.1,3.71-3.15,1.19.75.75,2.03.93,3.05.15.81,4.1,6,4.72,6.14.3-.89.88-.24,1.27-.45.91-.48,2.22-2.39,3.12-2.8.2-.09.57.16.89.12.09-.01.15-.47.33-.46.9.05,2.26,1.07,3.28,1.27.66.12,2.1-.42,2.76-.29,1.05.19,2.78.73,3.89,1.04,1.52.43,2.01,1.01,2.71,2.99-1.85,2.27-3.5.47-5.53.01-.58-.13-.97.25-1.36.16-1.18-.28-5.01-2.87-5.4-.88.04.38.08.76.11,1.15,1.07,1.11,4.26,3.55,3.58,5.7-.53,1.69-4.43-.41-5.34-.47-.21-.02-.14.6-.62.49-4.03-.93-14-5.13-17.87-7.38-.76-.46-2.55-2.24-3.24-2.52-.74-.31-1.17.24-1.87.15-3-.43-7.6-3.29-10.55-4.7-1.73-.83-4.13-1.15-6-2.05-2.74-1.34-8.38-5.17-10.19-8.4-.35-.64-.34-1.44-.77-2.09-1.2-1.82-2.08-1.01-3.3-1.59-.56-.26-.68-.93-1.08-1.18-2.45-1.54-4.24-1.85-6.97-3.94-1.17-.9-4-1.81-5.67-2.41-1.45-.52-3.36-.4-4.87-.86-.55,1.94,1.57,2.26,2.54,2.85.38.23.56.81.89,1.01.79.46,1.87.09,2.25.34.52.34,1.41,1.97,1.09,2.68-.86,1.96-3.28,1.11-4.63,1.12-.43,0-.76.42-1.36.41-.6,0-2.65-.37-3.22-.61-1.56-.64-1.19-2.42-1.5-3.55-.31-1.15-1.19-2.84-1.31-3.74-.12-.83.22-1.99-.26-2.59-1.52-1.86-2.17-.47-3.11-.61-.55-.08-.94-.74-1.6-.94-1.09-.35-2.77-.1-3.77-.52-1.83-.78-4.44-2.42-6.58-3.38-.92-.42-1.94-.44-2.81-.86-2.13-1.02-3.54-4.24-2.13-6.41.2-.12,1.91.06,2.24.18.67.25,2.26,2.44,2.65,2.69,1.51.97,2.44.8,3.94,1.29.82.27,2.47,1.4,3.29,1.69,2.11.73,2.42-.43,2.09-2.79-.2-1.47-2.39-2.16-1.18-3.6,1.42-1.7,5.19-.08,6.88.99.71-1.09,1.17-2.98-.01-4.12-.83-.79-.82.32-1.03.35-2.59.35-3.46-2.88.39-1.92,1.44.37,1.05.16,2.18.31,3.07.39,7.38,1.66,10.26,2.86,1.1.46,2.2.89,3.28,1.39.16.7.32,1.41.48,2.11-.75.6-1.5,1.21-2.25,1.81,1.25.07,2.78.73,3.98.76.61.01.92-.37,1.4-.4,1.93-.1,1.23.46,1.45,1.34.07.29.37.28.49.63.16.47-.12,1.45.94,1.87.79.31,1.51-1.52,1.3-2.36,1.59-.49,2.31,1.7,3.07,2,.86.34,1.39-.63,2.41-.16.19.08,2.47,3.62,1.47,4.06-1.14.45-1.41.95-2.78.38-.9-.38-4.25-3.05-4.7-3.01-1.02.08-1,2.44-.46,2.55,1.35.28,2.71.57,4.06.87.12.02,1.19,1.97,1.51,2.35.45.55,1.2.87,1.59,1.49.95,1.52.98,3.25,2.69,5.18,2.57,2.9,4.97,2.36,7.96,3.64,0,1.21-.01,2.41-.02,3.62-1.39-.06-3.95-1.49-5.17-1.36ZM452.3-3.31c-.64-.93-.18-2.38-2.29-2.12-2.13.27-1.91,2.18-2.51,4.12,2.78,2.01,6.94,1.37,9.64,2.48.6.25.77.96,1.09,1.09.44.18,2-.05,2.95.28.84.29,2.22,1.55,2.96,1.83,2.14.82,3.03.42,5.04,2.67.64.72,1.76,3.09,2.33,3.42.58.33,1.25.2,1.81.47.45.21.71.72,1.3.96,1.16.46,3.66,1.01,4.73.55-2.5-.39-2.57-1.37-4.01-3.43-1.06-1.52-2.04-2.9-3.04-4.66-.41-.71-.38-1.79-1.02-2.17-.56-.33-1.72-.44-2.38-.52-.33-.04-.66.39-.85.36-.87-.15-1.75-2.18-1.87-2.24-.61-.3-1.64-.17-2.38-.44-.42-.15-.72-.78-1.08-.84-.3-.05-.77.43-1.37.43-1.81,0-2.74-1.34-4.38-1.44-.97-.06-1.39.49-2.46.32-.53-.09-1.9-.67-2.22-1.13Z"/>
        <path d="M486.89-8.21c.32.24,2.18,3.83,2.62,4.49,1.43.82,2.37,1.98,3.78,2.94,1.79,1.21,6.17,2.93,8.26,2.99.61.02.88-.64,1.19-.63,2.89.15,11.11,2.23,13.99,3.72.63.32.94,1.02,1.51,1.24.46.18,1.11-.06,1.36.1.31.2.21.99.5,1.19.9.6,2.73.91,3.82,1.72,2.26,1.67,4.57,5.4,2.74,8.3-.69-.13-1.52.89-1.88.96-.56.11-.81-.48-1.17-.57-.41-.11-.72.41-1.05.25-.16-.08-1.43-1.58-1.5-1.86-.33-1.33.74-2.96-.61-4.48-.63-.7-1.12-.6-1.76-1.01-2.85-1.89-11.5-5.49-14.65-5.83-.5-.06-.4.53-.63.53-.89,0-2.22-.81-3.18-.9-2.2-.21-3.48.95-5.99-.23-1.45-.68-.88-2.31-2.15-3.68-1.2-1.3-2.65-1.44-3.71-2.22-.22-.16-.19-.55-.38-.71-1.43-1.22-2.98-2.45-3.28-4.79-.19-1.42,1.18-2.29,2.19-1.51Z"/>
        <path d="M197.45,44.5c-.27.35-.99.5-1.37.76.38,1.86,1.78,2.87,3.75,1.62-1.6-2.2,2.07-3.02,1.58-1.18-.24.9-1.08.99-.73,2.36.69,2.73,3.38.22,4.99-.24.69-.2,1.59.17,2.27-.03.88-.25,3.48-1.72,4.34-1.2,1.11.68.03,2.53-.95,2.9-.87.32-2.27-.45-2.91-.28-.57.16-1.15.65-1.68.8-1.19.35-1.86.09-3.29,1-.47.3-.03.68-.51.82-1,.28-2.85.04-3.65.25-.6.16-1.14.62-1.61.73-1.66.37-4.87.74-6.4.38-.27-.07-1.67-1.05-1.82-1.33-.57-1.08-.03-2.38,1.32-2.75.3-.08,1.17.96,1.79.4-.77-2.74.7-3.43,3.09-4.7-.08-.46-.17-.92-.25-1.38.93-.49,2.1-1.41,2.23,0,.01.12-.14,1-.18,1.05Z"/>
        <path d="M243.59-9.33c.95-.54,1.93-.55,2.88-.82.62-.18,1.13-.89,2.04-.6.96.3-.06.78-.2,1.12-.27.68.31,1.37.43,1.99-.82-.38-2.17-.36-3.09.02-.86.35-.79,1.06-1.39,1.38-.81.43-1.99.14-2.77.5-.67.31-.87,1.09-1.42,1.38-.79.42-1.95.13-2.76,1.09.68.02,1.36.03,2.03.05.58.76-.1,1.26-.32,1.9-.11.32,0,.72-.11.93-.08.16-1.23,1.14-1.46,1.24-1.44.61-1.4-1.23-2.11-1.83-.13-.11-3-1.31-3.18-1.33-.84-.09-1.87.71-2.33-.28-.3-.64.03-1.56.44-2.22.91.07,1.82.14,2.73.21.61-.89,1.23-1.79,1.85-2.68,1.42.4,1.37-.3,2.21-.84,1.5-.95,2.21.28,3.13-.16.17-.23.34-.46.51-.69-.86-.91,1.25-2.63,2.06-2.44.28.69.55,1.38.83,2.07Z"/>
        <path d="M503.77,18.09c-.22-.14-1.05-1.45-1.55-1.76-2.3-1.39-1.56,1.23-1.82,1.45-.09.07-1.73-.63-1.68,1.02.02.57,2.06,2.9,2.55,3.08,1.52.58,1.91-1.38,2.35-1.42,1.51-.14,1.37,1.77,1.75,2.78.21.57.91.71.67,1.27-2.36,2.32-3.01-.35-4.63-1.22-2.23-1.2-5.62-.33-5.62-5.08,1.21-.21,2.16.66,2.53-1.19.39-1.98.55-4.31-1.56-4.42.04-.45.07-.89.11-1.34.67-.25,1.46.96,1.69,1.03.16.05.51-.33.85-.3,1.73.16,1.54,1.51,2.83,2.15,1,.5,2.52.47,3.38,1.09.17.11,2.12,3.47,2,4.03-1.07-.56-2.87-.57-3.83-1.17Z"/>
        <path d="M124.58,67.34c.35.92,1.06,1.12,2.05.22-.03-.34-.06-.67-.08-1.01,1.77-1.07.6.37.65.95.04.46.28.78.67.95.7-.38,1.38-1.22,2.05-1.59.2-.11.37.26.85.03.85-.42,1.69-1.28,2.62-1.62.13.24.26.48.39.72-.72,1.38-1.57,1.02-2.52,1.48-1.21.58-1.93,1.5-2.82,2.08-1.11.72-4.58,2.34-5.71,2.41-2.46.16-1.95-2.01.37-2.06-.69-1.21.07-1.76,1.29-2.73-.02-.33-.04-.67-.06-1,1.41-1.05,1.21.37.24,1.19Z"/>
        <path d="M442.72,15.54c-.42.8-3.85.31-4.66.06-.8-.24-1.37-1.15-2.33-.97-.56-.98-1.99-3.09-1.72-4.18.06-.25,1.13-1.44,1.34-1.53,1.16-.5,2.27,1.45,3.14,2.1.94.68,5.24,2.62,4.23,4.52Z"/>
        <path d="M221.25-5.32c.17.66.33,1.33.49,1.99-.55.33-1.1.67-1.66,1.01.25,1.15.71.72,1.54.14.98.94-2.37,2.77-2.72,2.74-.87-.09.56-1.67-.7-1.74-.71.29-.73,2.1-1.31,1.97-.41-1.15-.97-.57-1.78-.61-2.84-.15,1.54-2.49,2.39-3.1,1.25-.9,2.32-2.25,3.76-2.39Z"/>
        <path d="M395.02,3.4c1.04-1.11,4.01-1.63,5.01-.12-.53,2.85-4.02,3.15-5.53,1.1,0-.07.42-.87.53-.98Z"/>
        <path d="M573.93,59.41c-.61-.46-1.49-.6-2.03-1.12-.16-.15-.04-.64-.25-.86-.55-.59-3.29-2.64-2.95-3.68.36-1.08,2.52.23,3.14.8.54.48,3.08,4.1,2.08,4.85Z"/>
        <path d="M234.05,40.66c-.91-.15-1.1-1.26.06-1.89,1.76-.96,3.49-1.2,5.05-.11-.56,1.67-1.68.94-2.57,1.11-.7.13-2.07.98-2.54.9Z"/>
        <path d="M141.74,35.04c.5.27.03,1.39.2,1.58.28.32,1.72.31,2.27.04.07.62-.08,1.58-.76,2.04-.64.43-.94-.35-1.54-.53-.88-.26-2.42.59-2.78.02-.86-1.39,1.32-1.08,1.67-1.4.37-.35.26-1.41.94-1.75Z"/>
        <path d="M508.51,27.49c-.05-.05.02-.52-.18-.65-.57-.37-1.67-.26-1.8-1.51-.1-.91,1.12-1.29,1.65-1.28.58,0,2.96,2.03,3.02,2.84.05.77-2.52.79-2.69.6Z"/>
        <path d="M219.19.87c1.25-1.07,5.17.55,4.25,1.8-.95,1.29-2.22-1.03-2.54-.95-.35.3-.7.6-1.06.9-.57-.21-1.37-1.14-.65-1.75Z"/>
        <path d="M248.78,33.49s.44-.74.48-.76c.91-.54,2.62-.17,3.62.02-.26,1.74-4.21,2.64-4.1.75Z"/>
        <path d="M556.13,44.36c.09.76.18,1.52.26,2.28-1.22-.56-2.33-.69-2.84-2.65-.02-1.27,2.1-.03,2.57.37Z"/>
        <path d="M385.54,5.67c.51.77-2.58,2.23-3.11,2.45-.36-1.86.27-1.47,1.11-2.15.93-.75.43-1.28,2.01-.31Z"/>
        <path d="M145.37,31.88c.23,1.16,3.06,2.24.19,2.6-.2-1.26-.45-.79-1.37-1.08.39-.51.79-1.02,1.18-1.53Z"/>
        <path d="M226.53,7.3c.37-.25.99-.59,1.4-.52,1.37,1.13-1.32,2.65-2.37,1.84.22-.49.5-1,.97-1.32Z"/>
        <path d="M260.38,29.18s.46.48.71.39c-.42.44-.84.87-1.25,1.31-.65.43-.73-.65-1.69.03-.28-1.21,1.34-1.75,2.23-1.72Z"/>
        <path d="M144.53,58.8c-.16-.1-.33-.2-.49-.3.09-1.03,2.86-2.26,3.17-1.72.29.49-2.42,1.63-2.67,2.02Z"/>
        <path d="M229.94.06c.4-.31,1.16-.64,1.47-.22.42.66-.05,1.29-.44,1.94-.5-.22-.99-.43-1.49-.65-.15-.29.18-.86.46-1.07Z"/>
        <path d="M370.32,4.7c-.55-1.56,2.02-2.11,2.36-1.14.49,1.41-1.75,1.11-2.36,1.14Z"/>
        <path d="M226.15-.04c-.09-.41-.56-1.25-.03-1.63.46-.33,2.46-.19,1.99.79-.62.32-1.37.5-1.97.84.11.5.33.97.44,1.47-.66.39-1.19.41-1.75.06.34-.85.51-1.09,1.31-1.53Z"/>
        <path d="M229.03,42.42c-.41.18-2.07,1.05-2.14.19.44-1.3,1.94-1.83,2.14-.19Z"/>
        <path d="M492.7,8.43c-1.66,0-2.69-2.27-.58-2.16.64.54.72,1.33.58,2.16Z"/>
        <path d="M385.46,2.81c-.05-.02-.7-.78-.64-.98,1.67-2.4,2.38,1.67.64.98Z"/>
        <path d="M244.42,35.26c.85-.62,1.69.13,1.16.82-.79,1.03-2.04-.17-1.16-.82Z"/>
        <path d="M214.77,2.59c.52.09,1.03.19,1.55.28,0,.4-.02.81-.02,1.21-.66.46-1.46-1.07-1.52-1.49Z"/>
        <path d="M154.08,51.88c-.39.27-1.92,1.53-2.1.76-.15-.65,1.88-1.56,2.1-.76Z"/>
        <path d="M231.69,3.7c-.71-1.46,1.03-2.87,1.13-.72-.38.24-.75.48-1.13.72Z"/>
        <path d="M223.54,1.1c-1.18-1.49,1.34-2.6,1.03-1-.09.49-.56.86-1.03,1Z"/>
        <path d="M138.22,38.99c.44.74-1.08,1.23-.32,1.87-1.72.8-.57-.41-.51-.8.1-.61-.78-.48.83-1.08Z"/>
        <path d="M221.1,11.25c-.39.63-.77,1.26-1.15,1.88-.58-.87.11-1.78,1.15-1.88Z"/>
        <path d="M213.99,5.7c-.07.2-.15.41-.22.61-.76-.26-1.4,1.47-1.99.83-.2-.21,1.84-1.41,2.2-1.45Z"/>
        <path d="M214.39,13.19c-.46.39-.92.79-1.37,1.18-.43-.81.82-1.08,1.37-1.18Z"/>
        <path d="M269.83,27.41c-.41-.21-.81-.42-1.22-.63.1-.17.2-.34.29-.5.72-.17.84.54.93,1.14Z"/>
        <path d="M158.08,48.66c-.42.42-.88.92-1.45.83,0-.59,1.05-1.29,1.45-.83Z"/>
        <path d="M140.03,39.29c.88.06-.38,1.74-.78.99-.11-.2.57-1,.78-.99Z"/>
        <path d="M402.13-1.16c.01.42.02.83.04,1.25-1.09-.05-1.11-1.28-.04-1.25Z"/>
        <path d="M214.83,9.15c.16.05.09.48-.06.71-.68,1.1-.99-1,.06-.71Z"/>
        <path d="M229.39,1.89c-.26.11-.52.22-.78.33-.07-.24-.15-.49-.22-.73.45-.28.95-.1,1,.4Z"/>
        <path d="M141.93,59.9c.07.13.14.26.21.39-.3.22-.6.44-.9.66-.07-.13-.14-.26-.21-.39.3-.22.6-.44.91-.66Z"/>
        <path d="M221.01,9.09c.08.24.15.48.23.72-.95.41-1.17-.3-.23-.72Z"/>
        <path d="M150.4,53.86c.07.13.13.27.2.4-.23.16-.46.32-.69.48-.07-.13-.13-.27-.2-.4.23-.16.46-.32.69-.48Z"/>
        <path d="M563.35,52.47c-.09,1.15-.19,2.31-.29,3.46.74.38,1.48.76,2.22,1.14.35-2.22.7-4.44,1.04-6.65"/>
      </g>
      <g>
        <path d="M307.94,16.7c.98.75.57,2.34.79,3.49,2.07-.21,4.15-.4,6.22-.58.15,2.08.29,4.16.44,6.24-.15.19-.3.38-.45.57-2.96.25-5.92.52-8.87.82-.11-1.18-.22-2.36-.32-3.54-.98.1-1.95.21-2.93.32.78,7.87,1.55,15.74,2.33,23.62.92-.09,1.85-.17,2.77-.25.1,1.06.19,2.12.29,3.18.92-.08,1.84-.16,2.75-.23-.28-3.31-.56-6.61-.85-9.92,1.04-.09,2.09-.18,3.13-.26.08,1.07.16,2.13.25,3.2.94-.02,1.89-.04,2.83-.06.18,1.13.35,2.26.53,3.39.93-.06,1.85-.13,2.78-.19.07,1.07.14,2.14.2,3.22,2.81-.17,5.61-.31,8.42-.43.91.45.39,3.34.61,3.58.91-.04,1.83-.07,2.74-.1.04,1.08.08,2.17.12,3.25-2.82.08-5.63.19-8.44.33.07,1.19.14,2.39.2,3.58,9.37-.43,18.75-.56,28.13-.39.04-4.64.09-9.28.13-13.92,1.03,0,2.06.02,3.09.04.02-1.22.04-2.45.06-3.67,1.97.02,3.94.06,5.92.11-.04,1.23-.07,2.46-.11,3.68,5.87.16,11.73.43,17.59.82-.08,1.12-.15,2.23-.23,3.35.2.28,2.69-.34,3.02.78-.16,2.18-.32,4.35-.48,6.53,3.66.29,7.33.63,10.98,1.01.74.98.09,2.55.08,3.8,2.78.3,5.56.63,8.34.98.15-1.26.3-2.51.44-3.77,1.9.24,3.8.49,5.7.75-.16,1.26-.33,2.52-.49,3.77,3.77.53,7.53,1.11,11.28,1.73-.18,1.14-.35,2.28-.53,3.41.88.15,1.77.3,2.65.45-.2,1.27-.41,2.53-.61,3.8-10.98-1.96-22.01-3.5-33.07-4.61-.1,1.12-.19,2.24-.29,3.37-12.04-1.25-24.12-1.99-36.2-2.22,0-1.1,0-2.19.01-3.29-3.73-.06-7.46-.08-11.19-.05.03,1.09.05,2.17.08,3.26-10.13.06-20.25.48-30.35,1.25.02,1.13.04,2.26.06,3.39-.87.12-1.74.24-2.6.36-.12-1.17-.25-2.35-.37-3.52-.97.08-1.94.17-2.91.26-.12-1.05-.24-2.1-.36-3.16-.88.08-1.76.17-2.64.25.13,1.05.25,2.1.38,3.15-9.21.88-18.39,2.06-27.53,3.54-.2-1.02-.4-2.03-.59-3.05-13.77,2.26-27.45,5.19-40.98,8.78.3.96.61,1.91.91,2.87-6.34,1.67-12.64,3.48-18.91,5.44-.74-1.95-1.49-3.91-2.23-5.86.95-.3,1.9-.6,2.86-.9-.35-.93-.69-1.86-1.04-2.79-2.78.87-5.56,1.77-8.33,2.7.77,1.93,1.55,3.87,2.32,5.8-.85.28-1.69.56-2.54.85-.41-1.01-.83-2.03-1.24-3.04-1.8.61-3.59,1.23-5.38,1.87-.39-.9-.77-1.81-1.16-2.71-5.41,1.93-10.8,3.97-16.15,6.13.43.87.85,1.75,1.28,2.62.84-.34,1.68-.67,2.52-1,.89,1.85,1.78,3.71,2.67,5.56-20.94,8.09-41.36,17.89-61.07,29.39,1.22,1.57,2.45,3.14,3.67,4.71-.77.44-1.53.89-2.29,1.33-.59-.74-1.17-1.48-1.76-2.22-2.48,1.46-4.94,2.95-7.4,4.46-.67-.8-1.34-1.6-2.02-2.4-7.25,4.5-14.4,9.24-21.44,14.21-.66-.66-1.32-1.32-1.98-1.98,3.17-2.25,6.36-4.45,9.58-6.61-.71-.76-1.41-1.53-2.12-2.29,4.01-2.7,8.06-5.33,12.13-7.88-1.28-1.52-2.55-3.04-3.83-4.55-.79.5-1.59,1.01-2.38,1.51-1.9-2.22-3.8-4.44-5.7-6.65,1.71-1.11,3.42-2.21,5.14-3.29-.66-.81-1.33-1.61-1.99-2.42,1.73-1.1,3.47-2.19,5.22-3.26,1.24,1.56,2.47,3.12,3.71,4.67,1.72-1.05,3.44-2.08,5.17-3.11-.57-.75-1.15-1.5-1.72-2.25,5.22-3.11,10.5-6.1,15.81-8.98,1.13,1.66,2.25,3.32,3.38,4.98-4.41,2.36-8.78,4.81-13.12,7.33.57.76,1.13,1.51,1.7,2.27-1.71.99-3.41,1.98-5.1,2.99-.58-.74-1.16-1.49-1.74-2.23-.81.49-1.62.97-2.43,1.46,1.82,2.3,3.64,4.59,5.47,6.89,3.33-1.99,6.68-3.93,10.05-5.83-1.18-1.61-2.36-3.22-3.55-4.83,1.71-.97,3.43-1.93,5.15-2.88,1.16,1.63,2.31,3.27,3.46,4.9,9.27-5.05,18.69-9.75,28.23-14.08-.47-.84-.95-1.67-1.42-2.51,1.76-.8,3.52-1.59,5.28-2.37-.51-.94-1.03-1.88-1.54-2.82.94-.42,1.88-.83,2.81-1.24-1.92-3.6-3.84-7.2-5.76-10.8,8.23-3.68,16.55-7.1,24.93-10.27-.39-.9-.79-1.8-1.18-2.69.94-.36,1.87-.71,2.81-1.06.45.88.89,1.77,1.33,2.65,1.88-.7,3.76-1.38,5.64-2.05.41,1.01.83,2.03,1.24,3.04,2.75-.97,5.52-1.92,8.29-2.83-.39-1.03-.78-2.06-1.18-3.09,1-.33,2-.66,3-.99-.73-1.96-1.46-3.93-2.19-5.89.91-.3,1.83-.6,2.74-.9.38,1.04.75,2.08,1.13,3.12,1.01-.33,2.02-.65,3.03-.97l2.1,5.95c.89-.28,1.79-.55,2.69-.82.32.95.65,1.89.97,2.84.99-.3,1.98-.59,2.97-.88.67,2,1.34,4,2.01,6.01-.97.28-1.95.56-2.92.85.69,1.99,1.37,3.98,2.06,5.98,9.95-2.88,19.99-5.41,30.09-7.57-.25-.99-.5-1.98-.74-2.97,4.7-1.02,9.41-1.96,14.13-2.82.21,1.01.42,2.02.64,3.02,7.42-1.34,14.87-2.48,22.33-3.43-1.79-11.97-3.58-23.93-5.37-35.9-2.03.31-4.06.64-6.09.98-.19-1.14-.37-2.29-.56-3.43-1.08.18-2.15.37-3.23.56-.18-1.03-.35-2.05-.53-3.08,3.14-.56,6.29-1.09,9.43-1.59-.17-1.15-.35-2.3-.52-3.45"/>
        <path d="M296.24,48.57c-.92.11-1.85.21-2.77.32.13,1.05.27,2.09.4,3.14.92-.11,1.83-.21,2.75-.32-.13-1.05-.25-2.1-.38-3.15Z"/>
        <path d="M174.76,89.51c-.85.35-1.7.71-2.55,1.06.49.96.98,1.92,1.47,2.88.84-.35,1.69-.7,2.53-1.05-.48-.97-.97-1.93-1.45-2.9Z"/>
        <path d="M488.69,31.79c-2.05,7.29-4.1,14.58-6.15,21.88,1.02.3,2.04.6,3.05.9-1.07,3.71-2.13,7.42-3.2,11.13.89.27,1.79.55,2.68.83-1.43,4.86-2.85,9.73-4.28,14.59.96.31,1.92.63,2.88.94-.73,2.43-1.46,4.86-2.19,7.29,1.79.6,3.59,1.22,5.37,1.85.4-1.28.8-2.56,1.2-3.84,7.21,2.51,14.38,5.22,21.49,8.12.41-1.15.83-2.3,1.24-3.45,7.16,2.9,14.27,6,21.31,9.29.52-1.27,1.04-2.54,1.56-3.82,2.62,1.22,5.22,2.46,7.82,3.72.49-1.14.98-2.29,1.47-3.43-.84-.41-1.69-.81-2.53-1.21.54-1.27,1.07-2.54,1.61-3.81-1.79-.85-3.59-1.69-5.4-2.52.47-1.15.94-2.29,1.4-3.44,1.82.83,3.63,1.67,5.44,2.53,2.03-4.83,4.06-9.66,6.1-14.48,8.34,3.86,16.59,7.97,24.74,12.34.6-1.26,1.2-2.52,1.8-3.78-.87-.46-1.74-.92-2.62-1.38.54-1.14,1.07-2.27,1.61-3.41-.98-.51-1.96-1.02-2.94-1.52.59-1.26,1.17-2.53,1.76-3.79,8.38,4.29,16.67,8.85,24.84,13.67.59-1.12,1.17-2.25,1.76-3.37,1.94,1.14,3.87,2.29,5.79,3.46-.6,1.12-1.2,2.24-1.8,3.36,1.72,1.05,3.43,2.11,5.14,3.18.61-1.12,1.22-2.23,1.83-3.35,1.91,1.19,3.82,2.4,5.71,3.62-.62,1.11-1.25,2.23-1.87,3.34,1.65,1.07,3.29,2.14,4.93,3.23.27,1.39-1.11,2.69-1.7,3.98,2.6,1.74,5.19,3.51,7.76,5.3-1.38,2.33-2.76,4.66-4.14,6.99.91.64,1.81,1.28,2.71,1.92-.66,1.1-1.32,2.2-1.98,3.3-4.3-3.08-8.64-6.08-13.01-8.99-2.66,4.69-5.32,9.38-7.97,14.08.79.73,2.28.91,2.33,2.36-1.94,3.39-3.89,6.78-5.83,10.17.77.54,1.55,1.08,2.32,1.63-1.36,2.34-2.71,4.67-4.07,7.01-2.32-1.65-4.65-3.28-6.99-4.88-.21-1.36,1.1-2.69,1.69-3.97-17.88-12.14-36.41-22.83-55.44-32.09-.53,1.27-1.07,2.54-1.6,3.81-6.9-3.37-13.86-6.56-20.88-9.55-.43,1.15-.86,2.3-1.28,3.45.83.35,1.65.71,2.48,1.07-.48,1.28-.97,2.55-1.45,3.83.91.4,1.82.8,2.72,1.2-.44,1.15-.88,2.3-1.33,3.45-5.12-2.3-10.27-4.5-15.45-6.6.4-1.15.8-2.3,1.2-3.45-10.44-4.19-21-7.96-31.66-11.31-.32,1.15-.63,2.3-.95,3.45-2.69-.85-5.39-1.68-8.09-2.48.3-1.15.59-2.3.89-3.45-1.78-.52-3.57-1.03-5.36-1.53,1.19-4.85,2.38-9.71,3.57-14.56-.88-.23-1.75-.47-2.63-.69.89-3.7,1.77-7.4,2.66-11.11-1-.25-2-.5-3-.75,2.26-9.7,4.52-19.4,6.78-29.09-2.97-.67-5.95-1.32-8.93-1.94.52-2.42,1.04-4.84,1.56-7.26"/>
        <path d="M595.05,94.11c-4.45-2.65-8.94-5.22-13.45-7.71-1.78,3.64-3.57,7.29-5.35,10.93.94.52,1.88,1.05,2.82,1.58-.56,1.13-1.12,2.26-1.68,3.39,1.63.93,3.25,1.87,4.87,2.82.55.98-1.56,3.62-1.5,4,.83.49,1.65.98,2.47,1.47-1.22,2.38-2.44,4.75-3.67,7.13.81.49,1.62.98,2.43,1.48,4.36-8.37,8.71-16.73,13.07-25.1Z"/>
        <path d="M602.62,113.25c-.82-.53-1.64-1.06-2.46-1.59-.61,1.12-1.22,2.24-1.83,3.36-.91-.58-1.82-1.17-2.73-1.74-2.55,4.72-5.1,9.45-7.66,14.17,1.68,1.08,3.35,2.17,5.01,3.28,3.22-5.82,6.44-11.65,9.67-17.47Z"/>
        <path d="M553.55,103.13c-1.76-.91-3.52-1.81-5.29-2.7-.5,1.14-1,2.28-1.5,3.42,1.75.88,3.5,1.78,5.25,2.69.51-1.14,1.03-2.28,1.54-3.42Z"/>
      </g>
      <g>
        <path d="M567.21,554.44c-1.26-.93-4.95-3.42-6.01-5.3-.78-1.41,1.67-1.12,2.55-.77,1.14.43,4.7,3.11,5.28,3.15,1.39.06,2.09-3.07,3.33-3.73,2.73-1.47,6.6.59,8.48-2.55.47-.78.08-2.55.19-3.16,2.09-11.4,12.21-8.34,7.91-27.84-1.53-6.96-7.28-15.51-7.15-21.15.28-10.9,8.75-5.47,15.65-7.29,2.27-.63,4.31-1.48,5.05-4.06,1.41-4.88-4.13-14.08-4.5-20.08-.37-6.3,3.68-10.97,7.22-13.04,2.14-1.26,7.5-.88,4.43-7.65-.64-1.4-2.12-3.66-2.76-4.97-1.71-3.52-1.11-5.66-1.38-8.09-.24-2.11-1.29-4.33-.7-5.94,1.02-2.8,5.91-3.07,3.03-9.44-.59-1.3-1.81-2.78-2.45-4.04-1.71-3.38.3-4.65,2.52-4.01,4.23,1.2,9.18,7,12.46,13.17,5.12,9.7,1.72,9.03.8,12.86-.46,1.91.19,5.19-.93,6.38-.88.93-3.73-.19-3.9,1.64-.12,1.3,3.32,7.14,2.79,9.87-1.3,6.68-8.33,7.58-10.88,12.72-4.41,8.78,8.15,37.66-5.16,35.44-4.21-.71-9.75-5.15-11.52-1.54-.78,1.57,1.66,13.24,2.61,17.01,1.64,6.34,5.97,14.64,6.23,19.88.8,15.9-7.29,19.79-15.46,23.89-2.25,1.13-3.83,4.12-7.61,3.1-1.23-.33-3.51-1.77-4.91-2.28-1.16-.43-2.44-.16-3.68-.87-.65-.37-1.08-.97-1.52-1.29Z"/>
        <path d="M440.87,611.65c-.26-2.55-2.18-5.82-2.72-8.37-.6-2.84,1.12-2.89,1.94-4.97.45-1.15-.27-1.87.88-3.17,1.43-1.61,1.9-2.6,3.01-4.21.74-1.07,2.8-1.85,3.56-2.87.53-.72.36-1.64.72-2.38.47-.96,2.55-2.81,3.63-3.55.14-.1.64.2.91-.05.53-.48.77-2.09,1.05-2.87,1.31-3.64,1.3-4.37,5.41-6.8,2.5-1.45.6-3.13,1.42-5.05.72-1.68,2.93-2.49,3.82-4.12.89-1.64.42-3.97,1.24-5.67,2.25-4.59,4.74-5.16,10.66-7.16,2.92-.97,5.33-3.15,9.29-3.1,3.74.09,2.91,1.42,1.66,2.41-2.85,2.24-7.34.93-9.55,4.44-1.32,2.09-2.64,4.84-3.23,7.16-.32,1.25-.14,2.92-.69,4.02-.61,1.24-2.08,1.9-2.78,3.06-2.67,4.39-4.92,10.93-9.07,14.32-1.2.98-3.6,1.64-4.53,2.64-.92.97-1.03,2.49-2.03,3.56-1.62,1.75-3.82,3.92-6.99,4.8-.87.24-2.74.32-3.3.66-1.43.85-1.47,3.07-1.69,4.36,1.67,1.45,4.05,2.88,5.12,4.54,1.07,1.63,2.12,7.49,2.04,9.09-.1,2.29-1.87,6.02-7.3,4.77-4.47-.93-2.34-4-2.49-5.5Z"/>
        <path d="M623.05,379.94c-.07-.12-1.06-2.2-1.09-2.29-.63-2.23,2.12-3.53,2.81-4.68.69-1.15.68-3.27,1.26-4.52,2.68-5.83,9.58-5.09,7.57-16.2-1.09-6.07-4.48-18.17-3.61-22.16.78-3.57,6.45-.03,9.64,7.09.21.46,1.31,3.35,1.51,3.92.98,2.87,1.15,8.02,5,9.32,1.88.65,3.23.23,5.34,1.18,3.17,1.36,11.02,6.77,14.27,14.73,3.06,7.36-4.06,1.9-6.08,1.44-2.8-.73-5.97.83-8,1.78-4.5,2.11-9.38,5.85-10.89,12.22-.84,3.55.63,9.02-4.52,6.58-1.67-.82-7.33-3.83-9.26-4.94-.97-.59-3.05-2.02-3.95-3.46Z"/>
        <path d="M496.23,543.64c-.11-.05-.24.07-.35.09-.14-.08-.29-.17-.43-.25-7.2-6.66.2-8.6,1.61-12.25.77-2.01-.96-4.1-1.75-6.43-1.24-3.63,3.33-3.63,7.78.68,3.09,3.02,1.59,6.54,1.74,8.71.14,1.97,1.81,5.19,1.14,6.92-.57,1.45-4.58,4.38-7.79,3.4-.83-.26-1.23-.56-1.95-.87Z"/>
        <path d="M544.44,542.19c-2.72-1.79-9.38-6.32-12.2-8.52-1.03-.83-2.26-1.86-2.18-2.54.49-1.79,8.84,2.51,11.78,4.56,1.82,1.11,9.91,7.35,10.49,9.07-.33.67-1.9.42-3.15.04-1.77-.53-2.65-1.28-4.74-2.61Z"/>
        <path d="M632.27,421.52c-.43-.28-2.39-2.26-2.85-3.01-2.66-4.28.49-6.17,3.42-2.52,3.52,4.45,1.57,6.92-.57,5.53Z"/>
        <path d="M561.79,557.19c-.39-1.34,1.04-1.64,2.48-.49,4.64,3.78.94,6.43-2.48.49Z"/>
      </g>
      <g>
        <path d="M12.09,407.38l16.61-2-.35-2.91,8.45-1.02-.32-2.62,11.08-1.33-.35-2.91,5.54-.67-.67-5.54-2.91.35-2.66-22.15-2.62.32-2.66-22.15-2.91.35-.98-8.16-2.62.31.32,2.63-2.92.35.67,5.54-2.62.32-.67-5.54-11.08,1.33-2.98-24.77-2.92.35.32,2.63-2.63.31.35,2.92-2.92.35-2.98-24.77-2.62.32-.7-5.83,2.62-.32-.63-5.25-2.62.32-.7-5.83,2.62-.32-.61-5.1c.6-.88,1.92-.56,2.86-.79l-.98-8.16,5.54-.67-.35-2.92,2.62-.31,1.68,13.99,11.08-1.33c0-.97-.63-2.18.09-2.97l8.01-.96-.32-2.62,5.54-.67.96,8.01c-.6.88-1.92.56-2.86.79l7.29,60.62,2.91-.35,2.66,22.15,2.62-.31-.32-2.63,2.92-.35-.35-2.92,2.62-.31,2,16.61-2.62.32,4,33.23,2.62-.32,1.02,8.45-2.62.32.67,5.54-11.08,1.33.32,2.62-8.45,1.02.35,2.91-22.15,2.66"/>
        <path d="M10.19,298.21l1.65,13.7,8.45-1.02-.35-2.92,2.62-.31-.61-5.1c.29-.89,2.68-.55,2.86-.79l-.32-2.62,5.54-.67-.32-2.62-19.53,2.35Z"/>
        <polygon points="16.96 283.2 17.28 285.83 19.9 285.51 20.25 288.42 31.33 287.09 30.66 281.55 16.96 283.2"/>
        <rect x="33.69" y="325.99" width="2.64" height="5.58" transform="translate(-39.02 6.54) rotate(-6.86)"/>
      </g>
      <g>
        <path d="M125.09,511.35l12.83-10.74-1.88-2.25,6.53-5.46-1.7-2.03,8.56-7.16-1.88-2.25,4.28-3.58-3.58-4.28-2.25,1.88-14.31-17.11-2.03,1.7-14.31-17.11-2.25,1.88-5.27-6.3-2.03,1.69,1.7,2.03-2.25,1.88,3.58,4.28-2.03,1.7-3.58-4.28-8.56,7.16-16.01-19.14-2.25,1.88,1.7,2.03-2.03,1.69,1.89,2.25-2.25,1.88-16.01-19.14-2.03,1.7-3.77-4.5,2.03-1.7-3.39-4.05-2.03,1.7-3.77-4.5,2.03-1.7-3.3-3.94c.02-1.07,1.3-1.52,1.97-2.22l-5.27-6.3,4.28-3.58-1.89-2.25,2.03-1.69,9.04,10.81,8.56-7.16c-.54-.81-1.71-1.48-1.55-2.53l6.19-5.18-1.7-2.03,4.28-3.58,5.18,6.19c-.02,1.07-1.3,1.52-1.97,2.22l39.18,46.84,2.25-1.88,14.31,17.11,2.03-1.69-1.7-2.03,2.26-1.88-1.89-2.25,2.03-1.69,10.74,12.83-2.03,1.7,21.47,25.67,2.03-1.7,5.46,6.53-2.03,1.7,3.58,4.28-8.56,7.16,1.7,2.03-6.53,5.46,1.88,2.25-17.11,14.31"/>
        <path d="M63.96,420.88l8.85,10.58,6.53-5.46-1.89-2.25,2.03-1.69-3.3-3.94c-.24-.91,1.95-1.93,1.97-2.22l-1.7-2.03,4.28-3.58-1.7-2.03-15.09,12.62Z"/>
        <polygon points="61.45 404.61 63.14 406.64 65.17 404.94 67.05 407.19 75.61 400.03 72.03 395.76 61.45 404.61"/>
        <rect x="100.12" y="430.18" width="2.64" height="5.58" transform="translate(-254.16 165.94) rotate(-39.91)"/>
      </g>
      <g>
        <path d="M310.06,660.17l4.95-15.98-2.8-.87,2.52-8.13-2.52-.78,3.3-10.66-2.8-.87,1.65-5.33-5.33-1.65-.87,2.8-21.31-6.6-.78,2.52-21.31-6.6-.87,2.8-7.85-2.43-.78,2.52,2.53.78-.87,2.8,5.33,1.65-.78,2.52-5.33-1.65-3.3,10.66-23.83-7.39-.87,2.8,2.53.78-.79,2.53,2.81.87-.87,2.8-23.83-7.39-.78,2.52-5.61-1.74.78-2.52-5.05-1.56-.78,2.52-5.61-1.74.78-2.52-4.91-1.52c-.56-.91.27-1.98.45-2.93l-7.85-2.43,1.65-5.33-2.81-.87.78-2.52,13.46,4.17,3.3-10.66c-.89-.39-2.24-.31-2.67-1.29l2.39-7.71-2.52-.78,1.65-5.33,7.71,2.39c.56.91-.27,1.98-.45,2.93l58.32,18.08.87-2.8,21.31,6.6.78-2.52-2.53-.78.87-2.81-2.81-.87.78-2.52,15.98,4.95-.78,2.52,31.97,9.91.78-2.52,8.13,2.52-.78,2.52,5.33,1.65-3.3,10.66,2.52.78-2.52,8.13,2.8.87-6.6,21.31"/>
        <path d="M209.61,617.36l13.18,4.08,2.52-8.13-2.81-.87.78-2.52-4.91-1.52c-.7-.63.59-2.67.45-2.94l-2.53-.78,1.65-5.33-2.52-.78-5.82,18.79Z"/>
        <polygon points="198.68 605.06 201.2 605.85 201.98 603.32 204.79 604.19 208.09 593.53 202.76 591.88 198.68 605.06"/>
        <rect x="246.33" y="604.39" width="2.64" height="5.58" transform="translate(-405.63 663.99) rotate(-72.78)"/>
      </g>
      <g>
        <path d="M721.45,385.6c-.54.66-2.09,2.29-2.43,3.13-.14.34-.11.85-.25,1.15-.51,1.06-1.33,1.68-1.85,2.46-.78,1.17-1.37,2.52-1.57,4.19-.47.16-.95.33-1.43.5-.75.85-.77,2.42-1.32,3.37-.16.27-.52.42-.69.66-.69,1.01-.88,1.97-1.86,2.9-.17.16-.5.12-.62.33-.35.58-.22,1.2-.83,1.98-1.6,2.07-2.95,4.8-5.07,6.49-.29.23-2.21.72-2.26.84-.22.48.09.89.05,1.39-.04.54-.31,1.11-.37,1.66-1.43-.66-2.48-2.27-3.32-3.59-.17-.27-.49-.42-.64-.72-.12-.26-.04-.66-.21-.9-.23-.33-.68-.39-.85-.61-.24-.31.19-1.66.35-2.01.38.11.76.22,1.13.33.19.15.15,1.36.2,1.64.05.26.58,2.04.64,2.14.54.86.95-1.79.99-2.13.02-.23-.18-.51-.17-.65,0-.17.71-.64.58-1.18-.58-.3-1.15-.6-1.73-.88-.03-.92-.82-1.65-1-2.49.74-.18.56-.86.96-1.36.73-.48,1.37.95,1.8,1.49.32.41.86.79,1.12,1.24.29.5-.1,2.38,1.18,1.63-.47-1.13.33-2.05.39-2.91.02-.31-.29-.44-.3-.6-.05-1.55,2.05.09,2.78.26.25.05.48-.15.69-.22.24-.5-1.19-.96-1.36-1.57.21-.43-.16-.74-.18-.9-.08-.62.21-2.75-.47-3.09-.12-.06-.63.33-.82-.25-.08-.24.18-1.48.29-1.73.18-.4.89-.32.65-1.03-.02-.06-.57-1-.64-1.03-.63-.28-.92.36-1.32.29-.38-.06-.64-.52-1.02-.57-.13-.02-1.6,1.2-1.72,1.38-.3.43-.13.35-.62.87-.79.83-.37.47-.45,1.21-.04.38-.19.68-.18,1.09,0,1.02,1.19,1.94.27,2.83-1.11,1.06-2.35-.96-3.1-.46-.17.11-.2.49-.37.48-.37-.03-.96-.53-1.38-.69-2.27-.85-1.56-.31-2.64,1.27-.37-.13-.73-.26-1.1-.39-.3-1.59,1.59-.3,1.64-1.99.03-1.05-.64-2.89-.64-3.25.02-2.43-.26-4.8-.31-7.18,0-.14-.31-.17-.29-.27.02-.07.68-1.07.76-1.15.48-.52,1.56-.17,1.63-.4-.09-.68-.87-.61-.88-1.41,0-.94.53-.54.72-.98.29-.65.09-1.63-.53-2.04-.63-.42-.85.78-.95.98-.04.09-.76,1.06-1,1.46-.29.48-1.58,2.57-2.13,2.44-.19-.05-.38-.37-.73-.49-.27-.1-2.19-.43-2.33-.37-.43.23-.48.93-.65,1.11-.16.17-.97.16-.86,1.03-.71.11-.61-.44-.75-.55-.19-.15-.92-.16-1.14-.54-.2-.84.77-1.7.8-2.32.05-1.05-.21-1.75-.4-2.65-.05-.25.12-.75-.11-1.08.47-1.32,1.91.14,1.96-1.39.02-.55.05-1.37.04-1.89,0-.45-.46-1.23-.53-1.74-.07-.48.12-1.39-.04-1.95-.13-.46-1.13-1.19-1.17-1.63-.09-.99,1.06-1.95,1.27-2.92-.37-.17-.74-.63-1.19-.32-.86.58-.24,1.77-.36,2.14-.07.21-.36.39-.47.64-.48,1.13.12,1.08.4,1.78.13.32.58,1.74.26,1.98-1.71-.3-1.18,1.25-1.66,2.17-.39.73-1.64.82-1.56-.2.04-.49.56-.7.47-.99-.02-.07-.53-.69-.59-.72-.91-.47-1.17.73-1.47,1.15-.42.59-.87.43-.9,1.62,0,.25.43,1.77.61,1.89.3.2.84.16,1.01.71.9-.24.28-1.38,1.23-1.83.15.06.29.12.44.18.5.53,1.01,1.08,1.51,1.63-.01.23-.8.86-.9,1.18-.09.3.16.56.14.93-.09,1.35-.92,3.14-.98,4.47-.02.44,1.07,2.84,1.1,3.79.04,1.23-.67,1.94-.36,3.27.13.58.26.98,0,1.6.5.04,1.03.22,1.52.23.52.01,1.25-.65,1.17.51.28.11.56.22.84.34.3,1.04-1.1.69-.94,1.64.04.26.35.27.5.42.07.07,0,.25,0,.26.06.06,1.25-.71,1.18.67-.06,1.11-.47,1.55-.85,2.37-.21.46-.03,1.43-.84,1.16-.58-.19-.88-1.14-.96-1.17-.54-.25-1.16.31-1.92-.08-.27-.14-.71-1.38-.55-1.68.6-1.14,1.5.54,2.02-.35.37-.63,0-1.03.03-1.23.02-.1.3-.23.36-.42.25-.84.47-1.32-.15-2-.48-.24-1.17.67-1.57.77-.69.17-1.71-1.27-2.11-1.43-.42-.18-1.07-.09-1.55-.2-1.33-.31-.44-1.79-2.04-1.84-.84.89-.84,1.52.12,2-.18.28-.35.57-.53.85-.58.36-1.11-.89-1.08-1.24-.84.71-1.82,1.21-2.86,1.44-.03-.43-.41-.23-.6-.35-.52-.35-.09-.84-.08-1.35.02-.62-.67-.67-.98-.93-.74-.63.47-.89.64-1.3.02-.05.22-.96.22-1.01,0-.04-.29-.74-.31-.78-.07-.08-1-.4-1.18-.38-.36.04-2.3,1.07-2.46.89.02-.21.08-.41.18-.63.13-.28.92-1.76,1.07-1.97.18-.24.56-.28.64-.45.16-.35.06-.93.34-1.25.19-.22,1.31-.63,1.61-.56.31-.81-.22-1.15.12-2,.18-.45,2-2.94,2.41-3.14.3-.15.61-.08.94-.27.73-.41,1.15-1.59,1.18-2.25.02-.35-.22-.47-.1-1.07.15-.69.8-1.2.7-1.9-.01-.1-1.19-1.1-1.3-1.37-.14-.35,0-.6-.09-.79-.15-.36-.62-.56-.98-.69.26-.92.52-1.83.78-2.75.08-.16.7-.56.86-.61.23-.07.8.16.87-.17.01-.07-.54-.88-.63-1.1-.08-.22.05-.52-.02-.74-.1-.34-.98-.56-.25-1.06.4-.27,1.09-.16,1.33-.68.27-.59-.33-.92-.33-1.32.01-1.05.85-2.04-.52-2.58-.59-.23-1.24.28-1.86.19-.38-.06-.45-.76-1.01-.56-.41.28-.15.5-.27.85-1.3,3.93-2.14,10.24-2.15,13.76,0,.56-1.01,2.39-1.27,3.12-.43,1.2-.48,2.68-.83,3.92-.09.32-.44.59-.45.75-.03.6.41,1.78.36,2.48-.03.4-.31,1.82-.58,2.11-.18.19-.57.26-.8.44-.28.21-.6.61-.86.75-.26.13-1.31.42-1.46.59-.03.48-.47.86-.61,1.27-.34,1-.33,2.21-.68,3.22-.08.23-.39.44-.43.63-.06.3.38,1.11.3,1.44.58-.12,1.16-.24,1.74-.35-.04-.59.04-1.31.27-1.95.23-.62.78-1.08,1.05-1.6.18-.35.11-1.08.66-1.11.27-.02.48.33,1.21.2.34-.06.23-.37.53-.35.29.21.59.43.88.64.06.65-.57,1.08-.68,1.62-.16.77.52.61-.4,1.64-.14.15-.61.39-.65.49-.13.57-.26,1.14-.39,1.71-.35.23-.7.46-1.04.69.11.46.21.92.32,1.38-.34.28-1.13.77-1.33,1.09-.19.3-.24.66-.35.8-.08.1-.43.15-.59.36-.15.2-.04.42-.13.58-.24.38-.93,1.09-1.1,1.48-.2.43.36,1.1-.16,1.75-.69.09-2.45,1.24-2.68.54-.19-.63.32-1.14.57-1.68.1-.22.06-.47.15-.68.05-.13.43-.07.43-.63,0-.39-.39-.42-.42-.68-.05-.42.27-1.07.28-1.54.02-.71-.5-2.04-.54-3.01-.01-.34-.09-2.46-.03-2.61.47-1.28,1.72-3.01,1.75-4.26,0-.23-.18-.36-.16-.68.04-.69.56-2.61,1.27-3.22,1.1-.94,1.96.82,2.32.58.48-.54.42-.97.62-1.45,1.06-2.51.42-2.12.55-4.14.1-1.58,1.04-3.83,1.17-5.44.02-.28-.27-.09-.25-.38.22-2.74,1.01-5.74,1.2-8.58.13-1.93,1.8-9.81,2.52-11.95.1-.3.35-.27.4-.4.58-1.38.86-2.74,1.48-4.24.43-1.05,1.53-3.63,2.25-4.52.37-.45,1.47-1.28,1.68-1.63.22-.37.93-2.2.93-2.55,0-.28-.26-.41-.16-.74.24-.77,1.34-2.37,1.61-3.11.27-.73.23-1.74.52-2.4.06-.13.32-.15.37-.28.52-1.25,1.02-2.64,1.5-4,.53-1.53.45-3.82,1.31-5.27.15-.25.45-.47.62-.77,1.23-2.23,1.25-4.34,2.21-6.64.13-.32.43-.55.53-.91.08-.31-.27-.16-.28-.3,0-.27.2-1.15.32-1.47.59-1.65,1.83-3.82,2.43-5.48.61-1.69,1.5-3.49,2.05-5.1.24-.72.22-1.51.48-2.21.22-.6,1.15-1.21,1.37-1.9-.12-.7-.25-1.4-.37-2.1-.84.08-1.57.1-2-.49.18-1.78,2.02-3.35,3.44-2.64.1.14-.37,1.55-.38,1.96-.01.46.42.48.45.81.06.68-.46,2.24-.4,3,.04.49.99,1.13,1.23,1.52.12.2.38.71.58,1.06.09.15.61,1.17.62,1.25.01.28-.4.62-.54,1.02-.22.65-.75,3.16-.77,3.77-.04,1.03,1.09,1.34.63,2.47-.57.34-1.13.68-1.7,1.02-.23,1.07-.46,2.14-.69,3.2.5.5.32.88.41,1.5,0,.05.26.04.26.13-.04.5-1.25,1.47-1.12,2.14.77-.43,1.4.88,1.37,1.36-.02.35-.27.64-.31.88-.1.55.12,1.17-.16,2.15-.16.57-1.09,1.89-1.11,2.03-.03.32.26.41.29.59.05.32.04,1.25-.07,1.58-.21.65-.67.67-.86,1.05-.35.68-.31,1.33.18,1.7.78-.57.91-1.69,1.3-2.39.48-.86,1.58-2.74,2.11-3.49.07-.1,1.11-1.23,1.18-1.27.17-.08.4-.03.55-.1.19-.08.15-.3.44-.33.51-.06,2.03.04,2.27.44.12.2.01,1.2-.06,1.47-.12.42-.46.57-.53.82-.03.11.31.01.28.35-.13,1.58-1.67,3.85.94,3.25.19-.1.69-2.44.85-2.88.24-.64,1.67-3.56,2.11-3.83.39-.23,1.09-.25,1.31.17-.03.87-.82,1.14-1.16,1.84-.11.22-.63,1.74-.6,1.84.24.71,2.4.64,3.06.79.41-.07.32-.59.52-.9.28-.44,1.09-.26,1.49-.14.14-.09-.19-1.23.3-1.47.39-.2.46.2.62.31.48.3.56-1.48.71-1.81.05-.12.29-.04.36-.18.92-1.88,1.03-3.96,2.48-5.66.52-.61,1.47-1.71,2-.61.07.14.59,2.97.6,3.2.05,1.87-1.2,5.55-1.96,7.26-.2.45-.47,1.07-.82,1.39-.35-.09.28-2.73.38-3.11.26-.92.92-1.93,1.07-2.81.12-.67-.12-3.4-.21-4.22-.02-.22-.08-.42-.21-.6-.43-.1-1.84,2.45-2.01,2.94-.09.27-.65,2.23-.64,2.35,0,.3.52.75.51,1.14,0,.21-.34.39-.43.73-.59,2.27-.49,4.87-.63,7.11-.04.69-.45,1.57-.45,2.2,0,.15.28.12.25.45-.07.96-.73,1.64-.77,1.97-.02.16-.07,1.77-.06,1.95,0,.15.31.18.29.29-.06.24-.36.33-.47.6-.21.54-.17,1.36-.39,1.84-.96,2.06-1.38,2.94-2.14,5.36-.61,1.92-1.77,3.66-2.62,5.39-1.04,2.11-1.63,4.69-2.84,6.44-.04.05-.25,0-.3.11-.18.36-.15.96-.3,1.37.79.02,1.23.87,1.55,1.53.22.46-.16.9,1.05.88.43,0,.5-.5.78-.7.52-.39,1.25-.43,1.06-1.35-.19-.92-.62-.04-.96-.29-.05-.11-.11-.22-.16-.34-.08-.91.67-1.7.68-1.86.03-.54-.3-1.08.1-1.91.05-.1.26-.05.3-.1.48-.71,1.52-1.31,1.72-1.61.18-.28.13-.68.3-.98.73-1.34,2.51-1.53,3.82-1.79.56.19.92,1.26.96,1.84.07.89.07,1.33.2,2.27.35,2.53.53,5.18.65,7.73,0,.17-.12.48.2.49.61,0,.51-.83.69-1.22.05-.1.26,0,.29-.06.77-1.09,1.51-3.67,2.47-4.55.18-.16.95-.6,1.15-.57.65.09,1.46,1.79,1.18.26-.79-.47-1.08-.64-1.13-1.68.38-.26.76-.52,1.14-.78-.45-1.64.63-2.8,1.51-3.69.2-.19.49-.07.57-.15.1-.1.27-.85.65-.75,1.14.28.8.99,1.01,1.78.21.76.71,1.72.67,2.49-.05,1.01-.33,2.76-1.41,2.21-.06.27-.13.55-.19.82.43.29.63-.35,1.05.03.27.25.52,1.14.59,1.22.24.3,1.5,1.31,1.57,1.58.08.77-.37,1.5-.36,2.18,0,.07.34,1.1.39,1.32.33,1.58.96,4.57.89,6.25-.04.97-.47,1.86-.5,2.73-.01.43.28.74.26,1.17-.01.37-.33,1.93-.47,2.17-.12.2-.42.11-.55.43-.25.6-.25,2.16-.57,2.56ZM720.24,380.96c-.01-.41.53-1.17-.06-1.39.01.42-.53,1.17.06,1.39ZM719.94,377.48c.08-.37.26-.84-.09-1.21-.07.34-.14.68-.21,1.02.1.06.2.12.3.19ZM713.18,391.14c-.02-.85-.96-.95-.94-.25.02.84.96.95.94.25ZM708.33,387.28c-.02-.46-.04-.92-.05-1.37-.71-.9-1.1.84-.5,1.25.18.04.37.08.55.12ZM705.64,396.63c.1-.46.2-.92.3-1.38-.8-.85-1.17.95-.3,1.38ZM707.64,367c.22-.43.81-.67.36-1.31-.47-.3-.84.99-.36,1.31ZM695.66,387.67c.54.64.9.28,1.63.46.18-.56.35-1.13.53-1.69-.45-.67-.27-2.09-1.42-2.13-.51,1.22.34,2.4-.73,3.37ZM696.76,391.3c.04-.33.09-.66.13-.99-.17.13-.34.27-.51.4.12.19.25.39.37.58ZM694.99,393.1c-.12.58.35.74.48.16-.16-.05-.32-.11-.48-.16ZM703.75,349.78c.05-.02.48-.51.49-.62-.14-.19-.29-.38-.43-.56-.72.21-.96,1.45-.05,1.18ZM694.07,393.29c.16-.45.61-.64.62-1.19,0-.05-.38-.88-.42-.91-1.87-1.35-1.92,1.74-.2,2.1ZM693.42,394.79c.47-.01.58-.55.29-.92-.1.31-.19.62-.29.92ZM701.23,335.38c.14-.17.19-.61.04-.76-.38-.07-.75-.14-1.13-.21-.2.67-.4,1.34-.6,2.01.59-.06.8-.5,1.18-.82.16-.14.47-.16.52-.22ZM690.91,378.81c.23-.47.65-.77.66-1.34-.32-.07-.65-.13-.98-.19-.1.48-.21.96-.31,1.44.21.03.42.06.63.09ZM690.47,380.71c.28-.32.08-.72-.16-.99-.11-.02-1.61,1.33-1.14,1.7.2.12.41.24.61.35.21-.28.24-.71.39-.96.07-.13.27-.07.3-.1ZM697.68,345.66c.12-.16.16-.31.16-.5-.13-.17-.26-.35-.39-.52-.63.73-1.72.83-2.22,1.93-.58,1.27,1.27,3.01,1.88,1.86.53-1.02-.13-1.81.27-2.65.06-.12.28-.08.3-.12ZM696.94,339.94c.17-.56.35-1.11.52-1.67-.79.28-.92.89-1.01,1.62.16.01.33.03.49.05ZM695.94,344.64c.13-.36.26-.72.39-1.07-.1-.04-.2-.08-.31-.11-.03.4-.06.79-.09,1.19ZM690.59,360.73c.25-.36.3-.97-.23-.97-.32.56-.8,1.01-.16,1.48-.08-.4.36-.47.39-.51ZM689.81,363.02c.08-1.01-.84.52-.99.73.17-.02.34-.03.52-.05.11-.34-.02-.79.48-.68ZM692.26,335.49c-.05.08-.69,1.53-.75,1.7-.45,1.29.31,2.03,1.31.84.31-.37.08-.82.31-1.28.44-.88,1.82-1.59,2.27-2.15.82-1.03.16-1.97.1-2.96-.34-.11-.71-.09-1.03.19-.1.09-1.52,2.09-1.58,2.22-.32.73-.18.73-.63,1.42ZM689.71,358.86c.26-.2.53-.39.79-.59-.5-.12-.76.09-.79.59ZM693.53,342.57c.03-.22.44-1.09-.23-.85-.44.15-.15.94.23.85ZM687.07,370.94c.07-.06.41-1.56.4-1.78,0-.04-.28-.62-.3-.65-.52-.67-2.32.19-2.53.69-.16.38-.13.86-.29,1.26-.09.24-.36.39-.45.63-.47,1.22-.2,1.6.1,2.63,1.6.4.77-1.56,2.26-2.54.32-.21.76-.23.79-.25ZM690.7,350.23c-.08-.7-1.7-.02-2.05.41.22.68.43,1.36.65,2.04.75.15.48-.44.58-.67.1-.22.44-.3.59-.66.14-.33.17-.78.22-1.13ZM690.1,341c-.06.09-.65,1.56-.78,1.87-.75,1.85,1.16,2.11,1.74.98.18-.35.69-2.71.7-3.12.02-.6-.65-1.11-1.14-.43-.13.17-.48.64-.51.7ZM685.52,365.13c.08-.37.16-.75.24-1.13-1.73-.34-1.88,1.31-.24,1.13ZM688.83,348.22c.06-.27.12-.55.18-.82-.11,0-.22,0-.33,0-.06.27-.12.55-.18.82.11,0,.22,0,.33,0ZM681.08,369.62c1.09-.18,1.35.32,1.84,1.01.36-.51.72-1.03,1.08-1.54-.57-.7-1.38,0-1.68-.09-.25-.08-.4-.69-1-.49-.08.37-.16.74-.24,1.11ZM688.81,338.96c.2-.38.39-.77.59-1.15-.73-.06-1.02.55-1.08,1.18.16-.01.32-.02.48-.03ZM687.04,343.46c-.25.69-.95,1.12-.27,1.64.23,0,1-1.6.27-1.64ZM682.04,364.97c.22-.4.35-1.11.22-1.49-.18-.32-2.27-.24-2.05-1.04.12-.44.67-.35.64-.84-.94-.78-1.06.48-1.42,1.11-.15.27-.53.41-.59.69-.03.1.35,1.78.4,1.88.26.49,1.2.45,1.81.37.07-.01.96-.64.99-.69ZM675.62,390.26c.17-.47.21-1.06-.41-1.09-.16.25-.33.5-.49.75.3.11.6.23.9.34ZM688.83,325.56c.17-.32.56-2.06.55-2.37,0-.06-.4-.72-.46-.87-.04-.1.13-.39.06-.5-.1-.18-1.02-.44-1.38.13-.73,1.13-.38,3.06-.64,4.17.46-.05,1.59-.03,1.87-.56ZM672.14,393.67c-.1,1.31,2.44,1.24,2.04-.1-.22-.71-1.48-.2-2.04.1ZM689.98,313.39c-.64.94.2,2.6.84,1.28.55-1.12.06-1.23-.84-1.28ZM690.09,318.17c.5-.49-.68-2.13-1.83-.51-.59.83-.57,2.17-.45,2.94,1.07-.08.88-.88,1.13-1.5.02-.04.61-.74.65-.77.15-.12.44-.11.49-.16ZM690.69,312.3c.04-.34.09-.68.13-1.02-.43.33-.56.91-.13,1.02ZM678.4,369.94c-.43-.51-3,2.95-1.11,2.13.92-.39.97-1.41,1.11-2.13ZM686.01,327.54c-.27-.19-1.09,1.01-1.19,1.25-.73,1.67.93,2.26,1.96.55-.25-.6-.51-1.2-.76-1.79ZM670.31,393.35c.39.1.79.2,1.18.31-.2-.44-.49-.86-1.11-.74-.02.14-.05.29-.07.43ZM679.51,348.97c.02-.21.04-.42.06-.64-.29.2-.36.38-.39.67.11-.01.22-.03.33-.04ZM674.59,370.43c.06-.26.11-.52.17-.78-.11,0-.22.02-.32.03-.09.3-.19.69.16.75ZM668.19,390.62c.03-.15.06-.3.1-.45-.11,0-.21.01-.32.02-.03.15-.06.3-.1.45.11,0,.21-.01.32-.02ZM672.52,357.1c1.06-.14,2.37-.75,2.31-1.96,0-.12-.27-.05-.28-.17,0-.19.23-1.11-.17-1.1-.55.02-.87.84-1.15,1.3-.08.12-.3.18-.35.3-.21.48-.18,1.12-.35,1.63ZM672.11,361.84c.47-.82,1.04-1.61.32-2.08-.9-.58-.74.48-.9.86-.07.17-.34.36-.39.5-.44,1.05-.06,1.02.98.72ZM660.28,403.91c1.15.01,1.49-2.1,1.5-2.79,0-.41-.68-.56-1.1-.51-.34,1.18.09,2.05-.39,3.3Z"/>
        <path d="M720.88,311.25c-1.24-.06-.66-.74-1.34-1.41.18-.42.36-.83.54-1.25.29-.15,2.08,1.5,1.56,2.14.15.05.31.1.46.16.12-.86.23-1.72.35-2.57.4-.15,1.36.44,1.61.07.19-.29-.39-.44-.56-.88-.23-.6,0-1.62-.24-2.05-.18-.05-.37-.1-.55-.16.09-.92.59-1.48.3-2.41-.36-.22-.63.36-.88.39-.19.02-.38-.27-.62-.19-.13.05-1.34,1.61-1.41,1.78-.41.99.73,2.55-.26,3.02-.53.25-.72-.3-1.07-.29-.21,0-.41.34-.63.35-.35.01-1.12-.8-1.55-.36-.31,1.64-1.78,1.15-.79.29.18-.16.62-.06.61-.59-.18-2.24-.37-4.48-.55-6.7.2-.7.6-1.01,1.23-.78.24-.51-.44-.46-.44-.97,0-.46.75-1.23.18-1.81-.13-.23-.26-.14-.41.02-.49.49-1.06,2.7-1.67,2.98-.64-.12-1.28-.22-1.92-.32-.26.49-.53.97-.79,1.46-1.5-.71-.74-.98-.57-2.16.09-.61.06-2.09-.32-2.43.32-.36.65-.44,1.06-.34.06-.05.13-1.29.12-1.53,0-.74-.21-2.3-.47-2.91-.08-.19-.41-.26-.44-.53-.06-.54.57-1.35.71-1.9-1.06-.88-.77.4-.89,1.02-.06.32-.3.6-.33.87-.04.3.82,1.8.59,1.97-.26.03-.52.07-.78.1-.28.32-.17,1.48-.65,1.6-.93.23.21-2.34-.92-1.61-.73.48-1.04,2.04-.62,2.76.92,1.58.79-.37,1.23-.44.33.37.66.74,1,1.12.04.32-.36.51-.43.69-.06.17.18.5.13.88-.1.83-.52,1.89-.55,2.68-.02.53.51,1.57.48,2.29-.04,1.03-.42,2.06-.26,3.11.39.23,1.05-.07,1.37.01.05.01.37.68.62.75-.17.28-.33.55-.5.83.09.41.54.17.68.37.45.63-.38,1.96-.48,2.7-.86-.13-.81-.97-1.91-.69-.24-.12-.4-.84-.14-1.1.28-.3.69.33.93-.16.15-.31.54-2.36.09-2.42-1.02,1.11-1.19.2-2-.21-.33-.17-.9-.07-1.19-.34-.22-.2,0-1.04-.74-.98-.66.62.29,1.42-.2,1.78-.22.15-.55-.53-.8-.53-.15,0-1.24.45-1.32.75-.83-.44-.37-1.07-.58-1.55-.09-.19-.56-.34-.56-.55,0-.18.38-.43.48-.69.29-.84,0-1.36-.81-1.33-.41.11-.82.23-1.23.35-.12-.23.08-.44.17-.67.09-.2.97-1.88,1.04-1.98.22-.3.77-.25.85-.46.22-.6-.14-.81.55-1.87.51-.78.97-1,1.6-1.46.75-.54.47-1.29.57-1.94.05-.29.32-.6.35-.88.01-.12-.65-1.8-.75-1.99-.14-.28-.58-.26-.52-.71.09-.7.68-1.97,1.51-1.7.09-.06-.62-1.61-.64-1.71-.09-.47.77-.12.93-.54-.35-.97.47-2.21-.61-2.69-.27-.12-.59.16-.88.09-.36-.09-.48-1.11-.77-.04-.87,3.21-.74,6.2-1.37,9.09-.3,1.39-1.21,3.26-1.43,4.76-.11.79.44,2.2-.35,3.01-.39.4-1.54.75-1.68.95-.37.51-1.13,3.56-.87,4.17.34-.04.68-.08,1.03-.12-.36-1.06.71-1.78.92-2.79.58.05,1.67-.39,1.69.48,0,.26-.25.57-.32.85-.25,1.09-.19.62-.59,1.43-.33.68-.02,1.08-1.01,1.54.39,1.08-.12.86-.55,1.48-.69,1-1.44,2.16-1.46,3.27-2.96,1.06-1.06-.59-.94-1.79.08-.74-.23-2.08-.24-2.91-.03-2.42.69-3.58,1.09-5.94.29-1.69,1.09-2.53,1.96-1.04,1.07-1.24.69-2.6.87-3.79.43-2.86.86-5.66,1.26-8.5.56-3.94,1.44-9.32,3.67-13.16,1.22-2.11,1.04-.83,1.76-3.63.3-1.18,1.41-3.25,1.81-4.52.36-1.15.51-3.42,1.08-4.33,1.05-1.67.76-1.35,1.29-3.2.97-3.37,2.12-6.88,3.34-10.28.16-.43.59-.7.7-1.16.06-.22,0-1.27-.09-1.35-.23-.22-1.17.14-.94-.82.24-.98,1.17-1.24,1.77-.91-.07.88-.31,2.97-.14,3.72.11.5,1.07,1.59,1.06,2.21-.01.49-.61,1.91-.66,2.76-.04.74.54.95.32,1.69-.3.2-.61.39-.91.59-.62,1.26-.01,2.19-.17,3-.06.32-.62.96-.5,1.16.02.04.43-.05.57.31.09.22.05,1.37,0,1.68-.13.84-.57,1.33-.67,1.84-.2,1.01.24.58-.39,2.09-.26.62-.12,1.33.28.68.75-1.2,1.8-4.59,3.43-3.92.91.38.43.87.36,1.41-.06.49-.42,3.21-.11,3.31.82-.28,1.91-.28,2.13-1.45-.3-.11-.6-.22-.9-.32.12-.29.24-.57.36-.86.38-.36,2.17.98,2.43-.38.41-.02.82-.04,1.23-.05.34-.38-.18-1.54.65-1.83.13.25.25.5.38.75-.62.45-.14.71-.18,1.15-.17,1.75-.32,3.63-.55,5.36-.68,5.03-3.28,9.77-5.01,14.38-.39,1.05.03.69.35,1.1.32.41.08,1.04.76.91.34-.07.89-.76,1-1.17.16-.61-.52.04-.54-.54.29-.73.22-1.55.53-2.23.06-.13,1.52-2.18,1.62-2.27.4-.41,1.51-.9,1.89-.4.43.56.39,5.8.64,6.87.82-.88,1.01-2.57,1.67-3.54.21-.32.91-.68.94-.83.04-.16-.16-.48-.12-.64.05-.22.57-.31.67-.59.07-.21-.03-.61.06-.93.17-.65,1.43-2.79,1.83-1.54.31.96.68,2.22.13,3.1-.25.39-.62-.33-.63.6.77-.48.95.9,1.8,1.15-.47,1.26.03,2.07.18,3.22.33,2.49.26,5.33-.6,7.56-.07.18-1.14,1.58-1.41,2.12-.74,1.5-1.34,3.59-1.99,4.99-.12.26-.53.32-.75.7-.4.68-.87,1.93-1.33,2.82-.91,1.72-1.7,3.73-2.68,5.37-.75,1.26-1.66,2.39-2.83,3.11-.08.63-.16,1.27-.24,1.9-.38.24-1.73-1.61-1.98-2.01-.22-.35-.13-.86-.68-1,.07-.41.15-.83.22-1.24.2.07.4.14.59.21.04.71.13,1.52.6,2.07.17-.84.33-1.68.5-2.52ZM728.23,299.19c-.06-.12-.11-.24-.17-.36-.1.12-.21.24-.31.37.06.12.11.24.17.36.1-.12.21-.24.31-.37ZM725.35,296.66c-.34,1.15.45,1.37.3.1-.1-.03-.2-.07-.3-.1ZM724.23,303.3c.06-.3.12-.61.18-.91-.1-.03-.2-.07-.3-.1-.09.34-.2.79.12,1.01ZM719.85,298.89c.43-.51-.03-2.56-.52-2.19-.09.74-.18,1.48-.27,2.21.27,0,.53-.02.8-.02ZM723.11,275.7c.21.41.84-.61.37-.69-.16-.03-.45.55-.37.69ZM717.38,301.71c.02.06.6.75.79.41.77-1.57-1.08-1.48-.79-.41ZM716.49,293.68c.11-.29.23-.58.34-.88-.16-.03-.32-.06-.47-.08-.06.3-.12.6-.18.91.1.02.21.04.31.05ZM716.28,294.67c-.33-.71-1.06.5-.59.93.2-.31.39-.62.59-.93ZM720.37,273.06c0-.26-.79-1.09-1.14-1-.41.1-.65,1.58-.57,2,.04.2.69,1.23.89,1.26.69.1.49-1.13.55-1.55.03-.24.27-.52.27-.71ZM720.68,269.94c.43-1.59-.7-1.55-.95-.11.32.04.63.07.95.11ZM715.66,284.57c.23-1.17.95-2.06.67-3.18-.05-.19.16-.34-.28-.3-.85,1.12-.7,2.13-1.01,3.43.21.01.42.03.63.05ZM719.24,264.87c-.64-.65-2.03,2.92-2.15,3.51-.14.7.3.9.67.31.19-.3.22-.7.42-1.04.41-.7,1.09-.58,1.18-1.72.01-.13-.09-1.02-.12-1.06ZM714.46,288.88c.24-.32.24-1.23.02-1.55-1.05-.97-2.71,3.51-1.14,3.21-.14-1.15.89-1.37,1.12-1.67ZM716.06,277.73c.17-.61.35-1.21.52-1.82-1.75-.3-.89,2.15-.52,1.82ZM717.19,270.28c-.11-1.54-1.93,2.18-1.18,2.41.82.26,1.22-1.81,1.18-2.41ZM713.73,285.32c.05-.24.1-.48.15-.72-.6-.14-.9-.07-.62.6.16.04.31.08.47.13ZM711.22,288.06c.49,0,.74.19.93.63.21-.35.41-.7.62-1.05-.68.09-.9.07-1.42-.29-.04.24-.09.47-.13.71ZM715.65,269.13c.1-.24.21-.49.31-.73-.4-.06-.6.27-.63.71.11,0,.21,0,.32.01ZM714.6,272.79c.07-.4.45-.76.02-.93-.15.41-.46.73-.02.93ZM710.81,282.77c-.43.75-.8,1.54-.56,2.32.26.83,1.81.44,1.68-.71-.36-.24-.72-.48-1.08-.71.14-.3.29-.6.43-.9-.16,0-.32,0-.48,0ZM708.09,300.92c.11-.09-.03-.54-.14-.55-.45-.03-.17.8.14.55ZM714.82,261.11c1.5.53,1.68-2.81.33-2.58-.11.86-.22,1.72-.33,2.58ZM707.3,303.12c-.16-.61-1.2-.2-1.21.27.2.52,1.27.43,1.21-.27ZM716.48,253.49c-.45,1.29.42,1.61.59.2-.2-.07-.39-.14-.59-.2ZM716.53,256.48c-.33-2.14-2.38.83-.91,1.3.18-.58.25-1.5.91-1.3ZM708.63,289.4c.26-.05.52-.09.78-.14.1-.36.19-.72.29-1.09-.16.12-.31.24-.47.36-.2.29-.4.58-.6.87ZM714.59,262.93c.1-1.44-1.4-.73-1.07.53.28.55,1.03.11,1.07-.53ZM705.03,302.9c.21.07.41.14.62.21-.1-.18-.2-.36-.3-.55-.08,0-.16,0-.24-.01-.02.12-.05.23-.07.35ZM706.69,279.52c1.17-.02,1.41-.99.94-1.83-.22-.13-.58.58-.64.74-.16.37-.26.71-.3,1.09ZM706.38,282.55c.43-.59.55-1.36-.18-1.39-.15.48-.31.96-.46,1.44.21-.02.43-.03.64-.05ZM699.22,309.33c.18-.1.35-.2.53-.3.12-.5.23-1,.35-1.51-.2-.1-.41-.19-.61-.28-.09.7-.18,1.39-.27,2.08Z"/>
        <path d="M653.18,459.1c0-.06-.42-.55-.48-.52-.12.22-.29.43-.45.64-1.65,2.11-1.34,4.08-2.2,6.36-.51,1.36-.64,2.54-1.07,3.75-.08.24-.29.09-.38.32-.14.4-.39,1.6-.42,2.01-.02.24.24.15.23.39-.03.5-.31,1.1-.34,1.63-.78.53-1.85,1.26-1.1,2.19.27-.24,1.37-.72,1.42-1,.04-.2-.32-.52-.11-.9.27-.07.55-.13.82-.19.47.61.95,1.23,1.43,1.87-.25.56-.79.31-1.19.38-.33.05-2.21,1.89-2.22,2.19.37.15.14.42.24.61.23.44,1.06,1.1,1.27,1.55.05.1-.03.27,0,.43.01.05.19.08.2.17.03.44-.3,1.07-.32,1.56-.01.32.28,1.03.27,1.35-.01.5-.12,1.33-.17,1.86-.07.73-.27.94-.98,1.23-1-.95-.41-1.7-.36-2.67.01-.28-.16-.47-.15-.66.03-.56.83-2.36.03-2.58-.15.01-.29.03-.44.04-.37.5-1.13,1.99-1.98,1.68-.68-.25-.11-2.08-.13-2.52,0-.1-.24-.06-.22-.29.11-1.9,1.27-6.64,2.05-8.51.15-.37.8-1.23.9-1.57.1-.36-.14-.56-.12-.89.07-1.43,1.12-3.66,1.64-5.1.31-.84.4-2,.75-2.91.51-1.34,2.1-4.11,3.51-4.97.28-.17.62-.15.91-.35.8-.56.45-1.01.71-1.61.12-.27.41-.32.53-.51.7-1.18.86-2.07,1.83-3.38.42-.56.89-1.95,1.2-2.78.27-.71.26-1.68.52-2.43-.87-.34-1.07.72-1.37,1.2-.12.19-.38.26-.48.43-.23.39-.08.94-.2,1.12-.17.25-.91.66-1.22.5-.86-.45-.44-1.65-.41-2.33,0-.21-.17-.38-.15-.68.02-.3.23-1.33.35-1.61.33-.78,1.13-.58,1.65-.72.53-.14,1.34-.54,1.75-.58.39-.04.91.18,1.2-.05.91-.7.3-1.09.4-1.56.06-.28.38-.45.5-.78.21-.54.17-1.42.41-1.91.45-.9,1.35-2.17,1.93-3.23.25-.46.32-.98.57-1.41.61-1.05,2.25-1.6,3.21-.7.05.11-.15.99-.23,1.15-.16.33-1.31,1-1.45,1.18-.55.72-.52,1.21-.84,1.96-.17.4-.79,1.19-.97,1.59-.45,1.04.09,1.26,1.21,1.26.7,0,1.14-1.08,1.77-.34.73.88-.22,2.69-.79,3.47.48.46,1.36.86,1.95.37.41-.35-.11-.45-.12-.57-.05-1.38,1.53-1.51.89.39-.24.71-.13.53-.24,1.1-.32,1.55-1.09,3.65-1.73,5.02-.25.52-.48,1.05-.74,1.56-.33.02-.66.03-.99.05-.26-.44-.52-.88-.78-1.31-.06.64-.41,1.36-.45,1.98-.02.31.15.5.15.75,0,1-.24.59-.64.63-.13.01-.14.17-.3.2-.22.05-.66-.17-.87.34-.15.38.67.88,1.05.84.2.85-.81,1.05-.95,1.41-.16.41.27.76.05,1.24-.04.08-1.65.99-1.84.46-.2-.61-.42-.78-.15-1.44.17-.43,1.42-1.96,1.41-2.19-.02-.53-1.09-.67-1.15-.4-.15.67-.29,1.34-.44,2.01-.01.06-.89.49-1.07.63-.25.2-.4.56-.67.73-.68.4-1.44.34-2.29,1.13-1.26,1.18-1.01,2.4-1.54,3.84-.52-.04-1.04-.07-1.55-.09,0-.68.6-1.92.54-2.52ZM663.79,442.99c.46-.27,1.12.08,1.09-1.03-.03-1.12-.94-1.15-1.83-1.57-1.07,1.31-.92,3.48-1.53,4.8-.13.29-.47.34-.54.5-.1.21-.04,1.02-.21,1.49-.16.41-.77,1.05-.91,1.41-.42,1.05-.26,1.51-1.31,2.43-.34.29-1.42.77-1.57,1.04-.16.28-.11.62-.23.89-.1.22-.33.33-.44.62-.21.57-.47,1.8-.27,2.35.18-1.24.62-1.24,1.55-1.88.69-.47,1.32-.9,2.13-1.31.33-.17.81-.09,1-.39.16-.27.23-.85.28-1.18.03-.16-.16-.36-.15-.45.09-.44,1.03-.76,1.06-.81.15-.29.12-.82.26-1.19.08-.2.38-.32.42-.49.03-.15-.18-.42-.16-.73.05-.93.71-1.31.81-2.14.06-.49-.18-.75-.06-1.28.06-.27.38-.93.61-1.06Z"/>
        <path d="M682.53,440.3c-.37.4-1,1.49-1.41,2.13-.24.39-.12,1.21-.94.92.04-.26-.17-.52-.16-.78.04-.78.72-3.79,1-4.51.3-.76.91-1.89,1.29-2.65.05-.1.3.02.35-.08.1-.19.26-.91.28-1.15.02-.29-.25-.31-.26-.44-.01-1.42-.07-2.89-.08-4.31,0-.52.14-1.07.12-1.37-.01-.16-.47-1.41-.68-1.39-.76.3-1.48.87-1.95,1.52-.76,1.06-1.32,2.09-1.67,3.31-.37,1.29-.43,1.61-1.08,2.65-.6.94-.01,1.57-.04,2.16-.03.54-.64,1.9-.64,2.21,0,.11.29.18.28.29-.09,1.27-1.7,8.16-2.24,9.01-.12.19-.6.25-.64.62-1.58-.35-1.09-.58-1.16-1.49-.09-1.31-.48-.76-.9-1.19-.2-.2.04-.54,0-.73-.03-.14-.25-.18-.25-.29-.02-.63.46-1.56.51-2.24.07-1.05.23-1.92.31-2.91.02-.23-.22-.47-.18-.66.04-.2.41-.3.49-.62.07-.3-.17-.54-.16-.81.02-1,.37-1.35,1.46-1.04.12.24.23.48.35.72,1.1-.62.86-1.92,1.25-2.92.19-.48.85-1.36,1.07-1.86.24-.54.38-1.61.68-2.09.11-.18.44-.2.52-.36.32-.66.04-1.65.84-2.67.15-.18.89-.71,1.16-1.07.41-.55,1.43-1.54,2.07-1.84.6-.28,1.8,0,2.07.71.07.17-.05.38-.01.51.24.78.17,1.27.32,2.01.17.82.88,2.7.85,3.35-.03,1-1.06,5.48-1.42,6.37-.14.36-1.32,2.85-1.42,2.97Z"/>
        <path d="M670.69,432.77c-.41.27-.07,1.45-.09,1.82-.02.32-.21,1.12-.32,1.44-.17.49-.56.68-.62,1.19-.03.32.21.6.17.78-.01.06-.56.89-.63.96-.58.69-.76-.41-.98-.66-.55-.61-1.33-.32-2.06-.55,0-.46.75-.39.92-.65.16-.26.11-.66.24-.95.44-.95.89-1.79.97-2.92.03-.48-.3-.61-.29-.93.02-.49.45-.82.42-1.48-.03-.81-.8-.83-.28-2.02.47-1.08.65-1.25.51-2.54-.03-.3-.14-.68-.41-.85.02-.09.04-.18.06-.27.7-.56,1.39-1.12,2.1-1.68.65.09,1.29.19,1.94.3-.5.92.17,1.49.39,2.21.17.55.79,2.39.78,2.82-.04,1.47-1.58,1.6-1.8,2.17-.18.48.34.85-.02,1.46-.27.46-.9.29-1,.36Z"/>
        <path d="M665.24,461.21c-.11.13-1.74.72-2.04.89-.37.66-.89,1.03-1.31,1.66-.54.81-1.26,2.9-1.26,3.96,0,.31.29.5.29.66-.04,1.46-.78,5.48-1.32,6.81-.12.29-.41.39-.49.66-.06.22.06.57,0,.68-.08.14-.42.02-.49.15-.23.41-.29,1.31-.6,1.8-.62,1.01-2.08,1.87-3.36.76.02-.34-.43-.82-.48-1-.07-.28.16-.38.19-.55.03-.2-.2-.38-.14-.54.03-.08.6-.62.72-.64.54-.09,1.26.56,1.85,0,.28-.27.21-.52.37-.81.69-1.3,2.02-5.4,2.14-6.98.02-.25-.24-.25-.24-.36-.02-.45.32-1.07.35-1.55.07-1.1-.46-1.83.04-3.02.29-.69,1.01-.28,1.62-.81.57-.51.64-1.23.99-1.71.07-.1.25-.05.32-.13.55-.62,1.11-1.31,2.18-1.23.65.05,1.03.85.67,1.29Z"/>
        <path d="M692.52,292.09c-.08-.22.15-.72.17-1.01-1.24.05-2.46.93-2.6,2.38,1.98-.88.83,1.68-.01,1.18-.42-.24-.1-.82-1.05-.69-1.89.28-1.61,2.32-2.02,3.45-.18.48-.77,1.08-.95,1.57-.23.62-.46,2.49-1.12,3.05-.85.73-1.48-.08-1.29-.78.17-.62,1.21-1.57,1.38-2.01.15-.41.11-.83.25-1.21.31-.85.74-1.3.83-2.34.03-.35-.38-.06-.26-.4.27-.71,1.23-2,1.46-2.57.18-.43.14-.84.29-1.18.53-1.19,1.77-3.47,2.69-4.51.16-.19,1.38-1.07,1.61-1.14.89-.29,1.39.23.97,1.19-.09.21-1.1.7-1.06,1.18,1.94-.24,1.66.85,1.31,2.59.3,0,.61,0,.91,0-.14.68-.12,1.56-1,1.49-.07,0-.51-.21-.53-.23Z"/>
        <path d="M704.83,329.58c-.03.66-.36,1.2-.54,1.79-.11.39.1.84-.36,1.26-.49.45-.41-.22-.55-.38-.28-.31-.86-.16-1.25-.23.49-.37.93-1.12,1.04-1.72.1-.56-.32-.69-.29-1.1.04-.55.61-1.14.68-1.66.06-.45-.3-.74-.27-1.12.05-.54.62-1.12.38-1.8-.25.38-.5.75-.75,1.13-.63.15-.66-.35-.94-.61-.14-.13-.4-.16-.48-.27-.06-.08-.2-.95-.17-1.1.18-.95,1.19-.53,1.78-.79.11-.05,1.82-1.38,1.89-1.47.36-.44.29-1.22,1.01-1.22.47,0,.85.42,1.06.82-.37.48-.74.96-1.11,1.45.27.57.54,1.14.81,1.71-.73.67-.32.83-.33,1.43-.01,1.06-.93,1.13-1.02,1.75.07.15.13.3.2.46.8-.24,1.01,1.37.62,1.76-.47-.03-.95-.06-1.42-.08Z"/>
        <path d="M679.46,416.35c-.74-.23-1.5.25-1.85.88.46.29.52,1.66.61,1.78.15.19,1.29.15,1.46.54.25.92-.69,1.56-.78,2.24-.04.31.36.25.24.52-.25.59-1.47,1.85-2.29,1.21.27-.62-.21-1.55-.18-2.14.02-.39.35-1.11.26-1.37-.16-.47-2.29-.78-.63-2.26.06-.37-1.51-.5-1.85-.59.07-.29.13-.59.2-.88.5.29,1.58-.22,1.86-.58.2-.26.18-.77.53-.81.34.17.68.35,1.02.53.53.07,1.45-1.17,1.62.37.82.14,1.63.34,2.22.98-.09,1.71-.78,1.5-2.19,1.81-.8-.72-.46-1.37-.26-2.23Z"/>
        <path d="M680.26,414.44c-.07-.11-.14-.22-.21-.34-.34.03-.68.07-1.02.1-.97-.53-.39-1.45-.26-2.26-.4-.11-.78-.2-1.12.09-.16.2.31.92-.27,1.2-1.53-.21-.9-1.64-.83-2.56.03-.43-.6-.94.5-1.09.69.06.7,1.47,1.77.42-.15-.3-.16-.65-.32-.94-.2-.35-.99-.76-.86-1.01.12-.22,1.15-.23,1.36-.35.65-.39.58-2.2,2.07-1.13.26.31.02.59.05.87.02.15.3.17.28.26-.07.27-.58.38-.56.96,0,.12.27.15.27.27,0,.73-.17,1.72-.16,2.43.02,1.03,1.08,2.31-.23,3.16-.15-.03-.3-.06-.45-.09Z"/>
        <path d="M653.83,467.85c.05-.11.59-.46.71-.7.55-1.08-.56-.82-.65-.96-.03-.04.23-.84-.47-.86-.24,0-1.19.93-1.25,1.17-.21.73.62.98.65,1.19.09.75-.71.62-1.12.78-.23.09-.27.43-.51.3-1.03-1.19.06-1.46.39-2.24.45-1.06.02-2.76,2.04-2.64.11.61-.25,1.05.55,1.29.85.26,1.85.46,1.88-.59.19.04.39.08.58.12.11.35-.4.68-.42.79-.02.08.15.27.14.44-.04.86-.63.69-.87,1.3-.19.48-.15,1.24-.39,1.63-.05.07-1.42.89-1.65.81.21-.51.17-1.4.4-1.85Z"/>
        <path d="M673.32,457.58s-.2-.06-.28.04c-.26.36-.55,1.4-1.33,1.03-.67-.32-.28-.97-.43-1.41-.05-.15-.8-1.03-.96-1.4-.2-.49-.26-1.18-.44-1.71-.08-.24-.38-.5-.39-.69-.02-.3.9-1.04,1.22-1.07.16,0,.82.5.84.55.06.13-.09.32-.05.43.1.29.36.54.38.98.03.51-.27,1.03.11,1.57.34.13,1.55-1.79,1.95-2.08.15-.11.66.02.71-.38,1.03.64.28.96.07,1.37-.36.69-1,2.32-1.41,2.78Z"/>
        <path d="M717.98,240.01c-.69-.08-1.23.29-1.33,1.17.2.08.39.17.58.26-.48,1.4-.55.25-.89.11-.27-.11-.58-.06-.9.13-.22.55-.17,1.21-.36,1.73-.06.16-.36.16-.51.52-.27.65-.31,1.41-.66,2.08-.2.02-.41.03-.62.05-.32-.83.36-1.26.68-1.98.4-.92.33-1.63.55-2.35.27-.9,1.49-3.53,2.14-4.25,1.41-1.56,2.23-.56.87.86,1.05-.04.88.59.67,1.63.19.09.37.19.56.29-.28,1.17-.91.6-.77-.23Z"/>
        <path d="M655.43,437.52c-.35-.21.02-1.94.17-2.36.15-.41.59-.7.56-1.19.48-.3,1.53-1.02,2.03-.88.11.03.61.59.64.7.17.6-.79,1.14-1.13,1.58-.37.48-1.44,2.64-2.27,2.14Z"/>
        <path d="M711.09,318.59c-.05.05-.79.13-.96.35-.42-.42-.49-.87-.28-1.48-.22.04-.43.07-.65.11-.51.78-.02,2.05.9,1.94-.25.75-.42,2.5-1.24,2.78-.56.18-1.44-.8-1.12-1.02.2.09.41.19.61.28.05-1.05.37-1.59-.54-2.19.12-.3.23-.61.35-.91-.32-.05-.65-.1-.97-.15.06-.22.11-.45.17-.67.58,0,1.04-.29,1.17-.93.48.44.98-.02,1.24.02.16.02,1.15.81,1.55.86.04.13-.12.9-.21,1Z"/>
        <path d="M671.69,412.9s-.28-.41-.27-.51c.19-1.5,1.72-.92,2.76-1.34.35-.6-.41-.62-.43-.99-.04-.69,1.61-1.12,2.17-.52.48,1.28-.33,1.45-1.05,2.08-.2.18-.3.43-.54.62-.12.09-1.59.78-1.68.79-.31.05-.68-.01-.95-.13Z"/>
        <path d="M710.74,316.35c-.42-.11-.85-.21-1.28-.3.03-.39.06-.79.08-1.18-.72-.19-.67.19-.66.8-.89.28-.62-2.05-.46-2.24.39-.46.7.76,1.23.09.12-.47-.87-.98-.57-1.27.79.1.69-.38,1.03-.8,1.2-1.5.76,1.55.76,2.18,0,.94.33,1.91-.14,2.72Z"/>
        <path d="M664.6,412.86c.44.58.4,2.17-.44,2.66-1.36-.34-1.17-2.18.01-2.96.03,0,.39.24.43.3Z"/>
        <path d="M642.16,500.76c.1-.28.07-.69.2-.95.04-.07.22,0,.28-.1.16-.25.63-1.52,1.04-1.33.42.2.15,1.2,0,1.48-.13.24-1.16,1.38-1.52.9Z"/>
        <path d="M679.9,317.04c.42-.61,1.13-.71,1.07.08-.09,1.2-.57,2.35-1.75,3.38-.76-.39.05-1.13.28-1.73.18-.47.19-1.4.41-1.72Z"/>
        <path d="M701.94,396.71c.1.29.02,1.28.05,1.61.02.17.25.25.25.37.01.58-.56,1.1-1.12.79-1.34-.74.21-4.45.81-2.77Z"/>
        <path d="M725.18,260.79c-.4.15-.73-.52-.92-.5-.31.02-1.06.77-1.21,1.17-.36-.19-.78-.62-.66-1.15.11-.5.67-.37,1.09-.62.6-.36.98-1.48,1.46-1.44,1.16.1-.15,1.09-.16,1.39-.02.32.58.68.4,1.16Z"/>
        <path d="M650.04,469.94s.22.02.26-.08c.14-.27.06-.81.57-.85.38-.03.57.58.58.83.01.28-.75,1.4-1.08,1.41-.32.01-.41-1.23-.33-1.32Z"/>
        <path d="M708.14,313.51c.1.97-2.29,2.72-2.63,1.91-.35-.85,1.42-1,1.5-1.18-.03-.27-.06-.55-.09-.82.34-.26,1.16-.47,1.22.09Z"/>
        <path d="M678.87,326.92s.28.3.28.33c0,.6-.77,1.71-1.21,2.36-.91-.18-.12-2.78.93-2.68Z"/>
        <path d="M674.15,432.66c-.59-.06-.03-1.03-.02-1.45.01-.3-.24-.53-.13-.95.07-.29.81-.49,1.07-.26-.26.3.07.88.04,1.01-.07.35-1.06,1.11-.97,1.66Z"/>
        <path d="M676.49,406.38c-.16.09-1.78-.12-1.81-.6.08-.35,2.1-.43,2.49-.51.03.11.06.21.09.32-.41.04-.71.75-.78.79Z"/>
        <path d="M672.99,413.42c.98.03,1.99.32,1.19,1.33-.16.05-.31.1-.47.15-.61-.05-1.03-.97-.73-1.48Z"/>
        <path d="M665,420.64c.08-.38.17-.76.25-1.15,1.97-.08,1.96,1.68-.25,1.15Z"/>
        <path d="M646.05,492.57c-.28.02-.55.05-.83.07.11-.57.07-1.1.77-1.3.47.02.17,1.01.06,1.23Z"/>
        <path d="M664.5,407.75c-.45.26-.82-1.41-.87-1.7.98-.19.71.16.95.61.27.51.59.25-.08,1.08Z"/>
        <path d="M724.91,263.85c-.71-.34-2.73.73-1.43-.9.75.37.64.07,1.26-.29.06.4.12.79.17,1.19Z"/>
        <path d="M674.89,403.28c-.16-.02-.32-.03-.48-.05-.06-.43.49-1.05.45-1.39-.04-.34-1.09-.49.19-1.15.33-.09.21.72.19.88-.07.57-.25,1.14-.36,1.71Z"/>
        <path d="M701.75,316.12c0,.27-.04.7-.24.92-1.15.56-.99-1.31-.14-1.76.19.23.37.5.37.84Z"/>
        <path d="M677.57,334.49s-.42.29-.44.45c-.12-.27-.23-.55-.35-.82-.04-.42.6-.46.51-1.09.77-.16.57.89.28,1.46Z"/>
        <path d="M721.57,305.31c-.13-.17-.05-1.97.57-1.73.19.12.34,1.46.23,1.69-.13.28-.67.21-.8.04Z"/>
        <path d="M711.06,254.71c.15-.08.29-.16.44-.23.51.33-.35,2.37-.81,2.43-.43.06.44-1.93.37-2.19Z"/>
        <path d="M704.51,319.7c.02.3-.07.8-.42.88-.52.08-.7-.33-.91-.7.3-.23.61-.46.91-.69.22-.02.41.31.42.51Z"/>
        <path d="M666.9,399.53c.87-.27.81,1.15.26,1.31-.78.24-.34-.97-.26-1.31Z"/>
        <path d="M705.98,317.61c.26.05.9,0,.91.4,0,.34-.82,1.41-1.18.91.06-.43.23-.89.27-1.31-.32-.06-.66-.06-.98-.11.04-.47.22-.77.62-1,.34.4.41.56.35,1.11Z"/>
        <path d="M680.74,313.61c.05-.28.17-1.43.7-1.46.58.34.32,1.36-.7,1.46Z"/>
        <path d="M657.82,462.79c0-.84.98-1.22.95-.16-.23.29-.58.28-.95.16Z"/>
        <path d="M668.28,417.97c.06-.23.12-.47.17-.7,1.44-.36.98.93-.17.7Z"/>
        <path d="M665.95,407.77s.47-.36.57-.32c1.02.97-1.12,1.23-.57.32Z"/>
        <path d="M679.33,324.03c.06.57-.65,1.11-.86.75-.32-.53.8-1.35.86-.75Z"/>
        <path d="M708.93,310.6c-.26.26-.51.52-.77.78-.22-.11-.44-.22-.66-.33,0-.49,1.17-.54,1.42-.45Z"/>
        <path d="M709.66,262.43c.05-.31.19-1.58.71-1.5.43.07-.15,1.56-.71,1.5Z"/>
        <path d="M701.84,319.87c1.07-.09,1.22,1.22-.01.8,0-.27,0-.53.01-.8Z"/>
        <path d="M670.19,402.64c.06-.27.12-.54.18-.82.15-.43,1.56.69-.18.82Z"/>
        <path d="M706.34,315.86c1.27-.28.93,1.41.16.83-.23-.18-.27-.53-.16-.83Z"/>
        <path d="M725.01,257.47c-.61-.06-.05-1.03-.79-.88.51-1.19.51-.14.68.04.26.28.66-.21.11.84Z"/>
        <path d="M706.8,328.14c0-.5,0-1,0-1.5.18-.07.35-.14.53-.2.03.65-.24,1.13-.52,1.7Z"/>
        <path d="M701.62,312.13c-.2-.36-.4-.71-.61-1.06.72-.17.96.43.61,1.06Z"/>
        <path d="M669.93,422.16c-.21-.03-.42-.06-.63-.08.05-.24.11-.48.16-.72.43.04.61.45.47.81Z"/>
        <path d="M707.52,309.35c-.08-.09-.17-.19-.25-.28.45-.36-.25-1.16.34-1.33.19-.05.04,1.4-.08,1.61Z"/>
        <path d="M703.19,307.79c-.04-.35-.07-.71-.11-1.06.63-.07.27.72.11,1.06Z"/>
        <path d="M675.71,340.52c.24-.26.48-.51.72-.77.07.06.13.13.2.19-.12.46-.55.52-.91.57Z"/>
        <path d="M709.33,265.71c-.01-.36-.05-.77.3-1.1.32.15.16.97-.3,1.1Z"/>
        <path d="M723.9,258.28c-.5.43-.69-.85-.09-.78.16.02.21.67.09.78Z"/>
        <path d="M666.15,416.78c-.21-.01-.41-.02-.62-.03.13-.57.75-.54.62.03Z"/>
        <path d="M705.27,308.97c-.09.08-.3-.06-.37-.2-.34-.65.95-.33.37.2Z"/>
        <path d="M703.7,318.96c.04-.17.07-.35.11-.52.16.02.33.03.49.05-.01.32-.3.56-.6.47Z"/>
        <path d="M711.92,252.79c-.11,0-.22.02-.33.03.05-.25.1-.49.15-.74.11,0,.22-.02.33-.03-.05.25-.1.49-.15.74Z"/>
        <path d="M702.87,312.54c-.16,0-.33-.02-.49-.02.14-.64.62-.62.49.02Z"/>
        <path d="M710.55,259.64c-.11,0-.22.02-.33.03.04-.18.07-.37.11-.55.11,0,.22-.02.33-.03-.04.18-.07.37-.11.55Z"/>
        <path d="M704.46,321.7c-.11-.01-.22-.03-.32-.04.04-.17.07-.35.11-.52.11.01.22.02.32.04-.04.17-.07.35-.11.52Z"/>
        <path d="M643.66,495.86c-.43-.06-.85-.12-1.27-.18-.07.35-.14.69-.21,1.04.82.18,1.65.38,2.49.61"/>
      </g>
    </g>
  </g>
</svg>