<?xml version="1.0" encoding="UTF-8"?>
<svg id="Layer_2" data-name="Layer 2" xmlns="http://www.w3.org/2000/svg" viewBox="0 0 119.8 1345.46">
  <defs>
    <style>
      .cls-1 {
        stroke-dasharray: 6.98 6.98;
      }

      .cls-1, .cls-2 {
        fill: none;
        stroke: #fff;
        stroke-linecap: round;
        stroke-miterlimit: 10;
        stroke-width: 6px;
      }

      .cls-3 {
        fill: #fff;
      }
    </style>
  </defs>
  <g id="Layer_1-2" data-name="Layer 1">
    <g>
      <path class="cls-2" d="M45.69,7.57c.01,1.17.03,2.33.04,3.5"/>
      <path class="cls-1" d="M45.78,18.05c.22,44.04-1.32,88.3,5.73,132.03,1.81,10.92,4.18,21.79,7.02,32.46,7.44,28.07-28.23,37.84,14.19,81.07,13.87,14.13-32.28,40.53-20.24,56.58,12.5,16.64,61.68,17.65-12.45,77.78-16.9,13.71,23.81,38.01,27.96,59.44,4.82,23.42-5.83,41.64-7.41,67.14-2.47,33.09,5.19,74.65,33.81,89.97,70.46,37.71-47.62,42.74-49.31,66.05-2.03,30.57,65.84,52.63,25.18,87.36-20.57,17.57-36.43,42.53-49.6,65.54-20.12,34.32-17.62,54.78-10.17,91.09,3.24,18.45,51.63,33.32,49.31,51.94-1.58,14.15-52.91,31.86-53.61,46.31-1.23,21.83,91.13,57.53,101.21,78.14,9.77,20.21-104.34,10.1-97.34,31.39,5.39,15.8,73.55,45.86,72.16,62.09-2.68,30.19-93.8,29.65-77.2,56.27,18.96,30.4,51.7-45.02,54.59,70.56"/>
      <path class="cls-2" d="M59.69,1324.74c.02,1.15.04,2.32.06,3.5"/>
      <rect class="cls-3" x="37.69" y=".05" width="15.84" height="15.84" transform="translate(-.05 .28) rotate(-.35)"/>
      <polygon class="cls-3" points="47.65 1324.84 59.79 1345.46 71.59 1324.64 47.65 1324.84"/>
    </g>
  </g>
</svg>