<?xml version="1.0" encoding="UTF-8"?>
<svg id="Layer_2" data-name="Layer 2" xmlns="http://www.w3.org/2000/svg" viewBox="0 0 507.86 5455.79">
  <defs>
    <style>
      .cls-1 {
        fill: #fff;
      }

      .cls-2, .cls-3 {
        fill: none;
        stroke: #fff;
        stroke-linecap: round;
        stroke-miterlimit: 10;
        stroke-width: 6px;
      }

      .cls-3 {
        stroke-dasharray: 7 7;
      }
    </style>
  </defs>
  <g id="Layer_1-2" data-name="Layer 1">
    <g>
      <path class="cls-2" d="M191.08,18.08c.02,1.17.04,2.33.06,3.5"/>
      <path class="cls-3" d="M191.24,28.58c2.77,193.25-7.98,387.86,25.7,579.95,7.97,44.29,18.46,88.35,30.95,131.64,32.83,113.83-124.48,153.45,62.56,328.74,61.15,57.31-142.38,164.35-89.24,229.42,55.11,67.49,272.03,71.57-54.9,315.42-74.55,55.61,105.02,154.15,123.3,241.01,21.24,94.98-25.7,168.86-32.68,272.24-10.91,134.18,22.9,302.72,149.11,364.84,310.72,152.93-209.99,173.32-217.47,267.82-8.95,123.94,290.36,213.4,111.03,354.24-90.72,71.25-160.67,172.48-218.76,265.75-88.75,139.15-77.73,222.15-44.84,369.37,14.3,74.82,227.71,135.12,217.44,210.62-6.99,57.36-233.33,129.2-236.41,187.79-5.44,88.54,401.9,233.3,446.32,316.85,43.07,81.94-460.14,40.94-429.26,127.27,23.78,64.06,324.36,185.98,318.24,251.79-11.84,122.42-413.67,120.21-340.44,228.16,87.69,129.26,242.2-213.29,241.65,360.08"/>
      <path class="cls-2" d="M253.56,5435.07c0,1.16,0,2.33,0,3.5"/>
      <polygon class="cls-1" points="178.77 .3 190.98 20.24 202.7 0 178.77 .3"/>
      <polygon class="cls-1" points="241.49 5435.07 253.46 5455.79 265.42 5435.06 241.49 5435.07"/>
    </g>
  </g>
</svg>