<?xml version="1.0" encoding="UTF-8"?>
<svg id="Layer_2" data-name="Layer 2" xmlns="http://www.w3.org/2000/svg" viewBox="0 0 341.3 282.15">
  <g id="Layer_1-2" data-name="Layer 1">
    <g>
      <path d="M.45,282.15l-.45-.86,57.36-86.49-.84-1.47,1.5.29L170.14,24.55l1.83,1.56,110.73,166.79,1.91.42v.84s-.85.21-.85.21l57.55,87.77H.45ZM115.34,110h110.87l-55.23-83.33-55.64,83.33ZM282.48,195.44l-55.43-83.96h-112.56s-55.86,83.96-55.86,83.96h223.85ZM2.36,280.88h336.83l-55.31-83.76-226.42.1L2.36,280.88Z"/>
      <path d="M278.25,13.98v-2.54c.73-.76,4.96,3.46,6.34,2.11l-.28,1.27-5.85,2.95-.39-2.56-1.28-.42H64.33s-1.28.42-1.28.42l-.19,2.57-6.34-3.59c.62-.75,1.35-.23,2.26-.66,1.03-.49,2.51-1.82,3.46-2.08,1.21-.33.13,2.16,1.26,2.53h214.75Z"/>
      <path d="M110.68,31.75v72.09s2.53.87,2.53.87c-1.14,1.64-1.93,3.43-2.83,5.2-.28.54-.3,1.42-1.18,1.36-.67-.8-.11-1.2.63-1.48l-2.97-5.08c-.29-1.3,2.24-.33,2.55-.64V31.99s-2.53-.87-2.53-.87l3.37-5.29,2.96,5.29-2.53.63Z"/>
      <path d="M76.41,68.55l-1.27,9.72-3.79.24c-2.81-1.32-.48-9.29,3.37-7l.42-2.68,1.27-.28ZM74.29,72.35c-3.11-.42-2.54,2.88-2.54,5.08l1.91-.42.63-4.66Z"/>
      <path d="M177.96,2.99c4.49-1.58,3.82,5.61,1.82,6.79-.99.58-4.31.92-4.34-.61-.01-.85,1.05-7.56,1.33-8.42.11-.33.3-.51.56-.71l1.03.65-.4,2.3ZM177.12,9.33c2.84.76,3.28-5.21,1.86-5.47l-1.37.49-.5,4.99Z"/>
      <path d="M83.21,78.73c-.16.16.07,2.83-1.72,2.51l1.27-9.73,3.52-.36c1.83.43,1.41,4.12.94,5.46-.91,2.6-3.74,1.86-4.01,2.13ZM86.14,72.35l-1.92.41-.62,4.67c3.11.42,2.54-2.87,2.53-5.08Z"/>
      <path d="M202.07,10.18l-3.8-.2c-1.91-2.81-.39-8.18,3.82-6.99-.82-2.24,1.64-4.39,1.51-1.7s-1.16,6.12-1.53,8.88ZM200.22,3.87c-1.4.42-1.53,5.23-.46,5.46,1.98-.39,1.37-2.91,1.91-4.44l-.2-.64-1.24-.37Z"/>
      <path d="M73.02,63.05h-3.81s.4,1.93.4,1.93l2.99.19c-.76,1.85-4.04,1.45-4.57-.3-1.8-5.92,5.98-9.38,5-1.82Z"/>
      <path d="M81.49,75.32h-3.81s.4,1.93.4,1.93l2.99.19c-.76,1.85-4.04,1.45-4.57-.3-1.71-5.6,5.94-9.59,5-1.82Z"/>
      <path d="M81.06,56.28l-.42,2.96c5.39-1.77,2.38,3.75,2.53,6.77h-1.27s.43-5.69.43-5.69c-3.23-1.46-1.82,3.89-2.75,5.27l-1.49.41,1.65-9.48,1.31-.24Z"/>
      <path d="M135.65,7.22c-.11.74.15,1.58.85,1.92,1.2.58,2.61-.95,2.53.4-6.72,3.72-5.9-8.4.03-6.36,1.3,3.55.2,4.53-3.41,4.05Z"/>
      <path d="M210.12,2.99c4.6-1.09,2.99,4.55,1.9,7.19-2.17.42,1.03-5.53-.84-6.33-2.32.91-1.53,3.91-2.1,5.93l-1.47-.25L209.28.03c2,.04.75,1.69.84,2.96Z"/>
      <path d="M147.5.03v2.96c.9.04,2.58-.36,2.92.69l-.81,6.49c-2.95.04.79-5.91-1.08-6.34-2.79-.64-.88,6.2-3.57,6.34-.29-.35.96-8.28,1.27-9.09.25-.65.36-1.22,1.26-1.06Z"/>
      <path d="M95.02,68.55l-.42,2.96c4.95-1.91,2.34,3.98,2.53,6.77h-1.69s.85-5.69.85-5.69c-3.2-1.84-2.12,5.27-2.55,5.69h-1.69s1.65-9.48,1.65-9.48l1.31-.24Z"/>
      <path d="M99.39,59.8c.91-1.01,3.16-1.45,4.34-.58l-1.07,6.59c-4.85,2.26-5.83-3.18-3.27-6.02ZM102.22,60.09c-2.44-.71-3.4,4.59-1.9,5.07,1.94.62,1.86-3.99,1.9-5.07Z"/>
      <path d="M170.35,2.99l-1.06,6.79-.46.31c-6.9,1.42-4.51-8.93,1.53-7.1ZM168.65,3.83c-2.35-.58-3.06,4.85-2.11,5.49,1.93,1.3,2.39-4.53,2.11-5.49Z"/>
      <path d="M197,2.99l-1.28,7.19-3.81-.19c-1.89-3.9.32-8.16,5.09-7ZM195.31,3.83c-2.6-.22-3.36,3.85-1.9,5.49,1.68.35,1.85-4.45,1.9-5.49Z"/>
      <path d="M191.02,6.73l-4.17.49,1.11,2.09,2.27-.4c1.1,1.09-3.91,2.69-4.58-.74-1.1-5.59,6.3-7.96,5.37-1.44ZM189.81,5.95c.52-2.48-1.93-2.91-2.53-.62-.31,1.18,2.02.45,2.53.62Z"/>
      <path d="M156.38,2.99c.38.7-.31,8.74-1.69,7.19,1.47-8-1.77-8.44-2.32-.41l-1.49.41,1.04-6.79,4.46-.4Z"/>
      <path d="M89.07,65.98l-1.23.03.85-5.7c-3.36-1.25-2.07,3.9-2.96,5.42l-1.27.28.85-6.76c1.15.37,3.8-1.01,4.46-.03.59.85-.39,6.57-.69,6.76Z"/>
      <polygon points="67.95 56.71 67.95 57.97 65.87 58.02 64.57 65.72 63.29 66.01 64.14 57.97 62.44 57.97 62.44 56.71 67.95 56.71"/>
      <path d="M134.8.87c-.41,1.21-1.84.4-2.46,1.56-.49.91-.84,7.78-1.56,7.75-.65-.02-1.02-.38-1.03-1.02l1.14-6.83-2.01-1.46h5.92Z"/>
      <path d="M206.31,1.3l.04,1.67,1.23.65-1.71.91-.42,4.16c2.96.45.17,2.41-1.27.78-.31-1.45.31-2.9.4-4.2.05-.73-.45-1.41-.4-2.01.01-.14,1.66-2.1,2.13-1.97Z"/>
      <path d="M91.22,69.81l.03,1.68,1.24.23-1.7.93c.1,1.94-1.52,4.13.86,5l-1.46.65-1.43-1.16c-.21-.89.73-2.85.67-3.82-.04-.69-.73-1.01-.75-1.59,0-.16,1.73-.7,1.32-1.89l1.24-.03Z"/>
      <path d="M78.1,60.09c-3.1-.62-4,2.69-2.9,5.02.69.43,2.42-.66,2.05.9-5.4,2.19-4.74-7.16-.63-7.22.86-.01,1.6.31,1.48,1.31Z"/>
      <path d="M173.31.02c.33.32-.98,8.17-1.29,9.07-.23.69-.32,1.23-1.25,1.08-.09-3.32.81-6.59,1.26-9.86l1.27-.29Z"/>
      <path d="M144.54,2.99v1.27s-2.44.1-2.44.1c-.48,1.15-1.5,3.75-.22,4.59,1.01.67,2.33-.68,2.24.59-6.02,3.22-5.3-8.3.43-6.55Z"/>
      <path d="M97.99,60.09c-2.81-.96-4.07,2.16-3.33,4.38.48,1.43,2.84-.16,2.48,1.53-5.95,2.25-4.44-8.58.14-7.13.55.17.82.64.71,1.21Z"/>
      <path d="M164.42,2.99c.33,1.57-1.41.32-2.34,1.25-.82.82-1.69,4.22-.19,4.9l2.11-.23-.5,1.19-2.9-.13c-2.04-2.91-.31-8.15,3.81-6.98Z"/>
      <polygon points="106.87 56.28 105.22 65.76 103.91 66.01 105.26 56.99 106.87 56.28"/>
      <path d="M185.58,2.99c.29,1.32-1.53,1.1-1.92,1.67-.55.82-.1,5.81-1.67,5.51-.89-.57-.36-.85-.29-1.53.09-.84.7-5.48.95-5.64h2.93Z"/>
      <polygon points="92.91 59.24 92 65.31 90.37 66.01 91.22 59.24 92.91 59.24"/>
      <path d="M159.34,2.99c-.3,1.8-.4,3.98-.84,5.71-.17.66.02,1.48-1.06,1.47-.89-.57-.36-.85-.29-1.53.19-1.8.52-3.65.88-5.41l1.3-.25Z"/>
      <path d="M153.84,263.54h2.12s0,5.5,0,5.5c1.64-1.55.84-2.67,3.8-2.11l-1.53,3.59,1.96,3.6v-6.56l.71-.56c2.83-.3,5.37-1.61,6.27,2.04,1.81-4.7,7.47-2.89,7,2.32-.39,4.4-5.8,5.1-7,1.05l-.21,2.12h-2.54v-5.92h-1.69v5.92l-5.22.02-1.34-2.56-.21,2.54h-2.12v-11ZM170.14,268.61c-1.07.34-.98,4.09.42,4.64,1.55-.64,1.66-5.3-.42-4.64Z"/>
      <path d="M239.32,264.17l2.54-.64v5.5c1.65-1.55.84-2.67,3.81-2.11l-1.67,3.59,2.09,3.6v-7.19c1.13.26,6.35-1.24,6.35.63v6.98h-2.12v-5.92h-1.69v5.92l-5.22.02-1.34-2.56-.21,2.54h-2.54v-10.36Z"/>
      <path d="M225.36,274.53h-2.54s-.21-2.54-.21-2.54c-1.24,4.94-7.2,3.75-7.02-1.48.16-4.82,5.99-5.81,7.02-1.05l.21-2.54c3.96.11,6.3-2.2,6.76,3.18.18,2.13.47,5.34-2.47,4.38l-.49-5.86h-1.27v5.92ZM219.85,268.61l-1.29.19c-1.88,5.56,3.15,5.43,1.29-.19Z"/>
      <path d="M120.42,274.53c-2.74-.26-6.34,1.97-6.78-2.11-.72-.05-.37.93-.81,1.51-1.11,1.45-4.39,1.48-5.48-.08-2.87-4.11,1.44-9.71,5.26-6.52.51.43.37,1.33,1.03,1.29v-1.69s2.54,0,2.54,0v5.92h1.69v-5.92h2.54v7.61ZM109.63,268.61c-1.07.34-.98,4.09.42,4.64,1.55-.64,1.66-5.3-.42-4.64Z"/>
      <path d="M139.46,274.53h-2.54s-.21-2.12-.21-2.12c-2.75,6.11-9.61.69-6.23-4.53,1.52-2.34,5.75-1.89,6.02,1.15l.42-2.11c1.13.26,6.35-1.24,6.35.64v6.98h-2.12v-5.92h-1.69v5.92ZM132.69,268.61c-.55,1.65-.81,3.36.63,4.64,1.29-.54,1.49-3.84.66-4.46l-1.29-.19Z"/>
      <path d="M205.89,274.53c-2.88-.05-6.59,1.92-6.35-2.54-.78.17-.44,1.36-1.06,2.1-1.26,1.49-4.65,1.15-5.61-.72-2.97-5.79,4.51-10.39,6.47-3.92l.21-2.54h2.54v5.92h1.69v-5.92h2.12v7.61ZM195.53,268.61c-1.01.32-1.21,4.87.84,4.22,1.01-.32,1.21-4.87-.84-4.22Z"/>
      <path d="M89.53,274.53c-2-.25-3.98,1.11-5.82-.11l-.53-6.24-1.72.68.09,3.92c.98.18,1.86.24,1.63,1.53-5.35,2.61-3.23-2.96-3.81-5.42-.09-.38-.99-.02-.87-1.35.06-.73.59-.5.84-.96.52-.95-.33-2.16,2.15-1.78v2.12s4.23,0,4.23,0v5.92h1.69v-5.92h2.12v7.61Z"/>
      <path d="M93.33,274.53h-2.54c-.19-.19.15-4.42.04-5.32-.1-.8-.79-.56-.88-.88-.41-1.52.64-1.29.82-1.73s-.04-1.15.25-1.79c.91-2.05,2.63-.86,3.75-.98,1-.1,2.07-1.41,3.59-.24v1.57s-1.63.69-1.63.69c-.34,1.95,1.83.08,1.28,2.54l-1.28.21v5.92h-2.54v-5.92h-.85v5.92Z"/>
      <path d="M176.69,266.92l.64,2.96.68-2.92h2.01s.49,2.91.49,2.91c1.63-1.48.03-3.56,3.38-2.96l-1.75,7.55h-2.44s-.47-3.33-.47-3.33l-1.24,3.2-2.36-.23-1.47-7.2h2.54Z"/>
      <path d="M259.63,268.19c.01-.42-.02-.85,0-1.27l2.52.02.86,2.94.47-2.92h1.81s1.53,2.92,1.53,2.92l.47-2.91,2.07-.04-1.75,7.56-2.46.03-.66-2.94-.68,2.92c-4.32,1.33-2.48-4.32-4.19-6.3-.08,2.88.64,7.07-3.59,6.79-6.65-.45-2.25-13.58,3.59-6.79ZM257.09,268.61l-1.29.19c-1.88,5.56,3.15,5.43,1.29-.19Z"/>
      <path d="M215.2,274.53c-2.7-.1-5.98,1.8-6.67-2-.61-3.4.15-6.36,4.13-6.04v-2.96s2.54.64,2.54.64v10.36ZM212.66,268.61c-2.55-.68-2.38,5.23,0,4.01v-4.01Z"/>
      <path d="M129.3,263.54v11c-2.54-.21-5.13,1.76-6.38-1.45s-.12-7.15,3.84-6.59l.18-2.57,2.35-.39ZM126.76,268.61c-2.64-.8-1.88,4.62-.63,4.64,1.22-1.15.43-3.17.63-4.64Z"/>
      <path d="M77.68,263.96v2.12c-7.98-.66-.44,2.31.11,3.48.81,1.74.54,4.79-1.68,5.31-1.81.42-5.38.22-3.93-2.24l2.68.16.72-1.01c-.01-1.34-4.85-1.88-3.64-5.72.84-2.66,3.54-2.12,5.74-2.1Z"/>
      <path d="M102.16,266.97l.91,3.33c.9-.41.35-2.6,1.25-3.18.47-.31,2.24-.66,2.11.41-.16,1.32-1.83,7.02-2.44,8.15-.81,1.52-2.5,2.78-3.84,1.13l-.05-1.43h1.7s-2.12-8.46-2.12-8.46l2.48.05Z"/>
      <path d="M188.1,266.94l1.08,3.36c.67-1.84.01-3.46,2.53-3.39.66.02.73-.13.63.63-.1.81-2.42,8.15-2.77,8.66-1.2,1.8-4.13,1.98-3.58-.82l1.65-.04c1.08-.65-2.31-6.85-2.06-8.42l2.52.02Z"/>
      <path d="M150.11,266.87l1.2.05c.47,1.47-.94,1.38-1.18,1.77-.18.31-.22,3.35-.1,3.85s1.65.43,1.28,1.77c-.2.72-1.66.74-2.3.64-2.56-.43-1.09-4.31-1.51-6.05-.08-.33-.75-.26-.83-.56-.41-1.42.61-1.38.69-1.56.57-1.24.15-2.94,2.5-1.56l.26,1.66Z"/>
      <path d="M236.05,266.83c.46.41,1.64-.54,1.1,1.74l-1.24.27c.21,1.12-.22,2.69.02,3.7.12.53,1.65.43,1.28,1.77-.2.72-1.66.74-2.3.64-2.56-.43-1.09-4.31-1.51-6.05-.08-.33-.75-.26-.83-.56-.14-.47,1.24-3.46,1.49-3.53,1.66-.47,1.64,1.7,2.01,2.02Z"/>
      <polygon points="232.13 263.96 232.13 267.34 230.01 267.34 230.2 264.36 232.13 263.96"/>
      <path d="M146.21,267.33h-1.66l-.35-2.42c2.12-2.73,2.69.21,2.02,2.42Z"/>
      <path d="M108.14,191.21l-2.06-.69c-.39-1.56.31-3.96-.06-5.37-.11-.4-1.06-.08-.8-.86.15-.46,1.62-3.41,1.9-3.61.57-.41,1.59-.76,2.09-.05.98,1.71-1.56,1.17-1.07,2.97h1.69s.21-2.54.21-2.54c.52-1.08,2.83-1.28,3.59-.21-.64.67-1.5.67-1.69,1.68-.26,1.37.17.95.97,1.06,1.58.24-.93,1.86-.97,1.99-.51,2.03,1.44,6.19-2.11,5.62v-5.92h-1.69v5.92Z"/>
      <polygon points="161.47 187.82 162.78 183.65 164.37 183.65 165.48 187.41 166.12 183.6 168.23 183.6 166.5 191.16 164.47 191.16 163.37 187.4 162.52 190.79 160.59 191.03 158.92 183.6 160.84 184 161.47 187.82"/>
      <polygon points="246.46 183.65 247.57 187.41 248.41 184.01 250.3 183.61 251.38 187.83 252.03 183.6 253.71 183.59 252.42 191.18 250.38 191.15 249.47 187.4 248.17 191.17 246.3 190.79 244.82 183.82 246.46 183.65"/>
      <path d="M199.55,180.21v11c-1.16-.28-2.53.35-3.54.28-4.19-.26-3.52-9.96,1.85-8.32v-2.96s1.69,0,1.69,0ZM196.41,184.9c-3.46,4.58,2.91,8.33,1.24.38l-1.24-.38Z"/>
      <path d="M138.61,180.84c.13-.46.96-.79,1.47-.63l.57.7.07,5.22c1.56-1.24,1.1-3.13,3.8-2.53-2.28,3.24-1.82,4.14,0,7.39,0,.43-1.66.28-2.12,0-.81-.48-.76-2.44-1.68-2.75l-.19,2.56-1.93.4v-10.36Z"/>
      <path d="M224.51,180.21l2.06.69.06,5.23c.81-.16.89-1.63,1.48-2.11.46-.38,1.62-.68,1.9-.43.59.56-1.53,2.75-1.53,3.59,0,1.09,1.85,2.6,1.96,3.8,0,.43-1.66.28-2.12,0-.81-.48-.76-2.44-1.68-2.75l-.19,2.56-1.93.4v-11Z"/>
      <path d="M92.82,190.69c-1.03,1-6.36,1.31-5.19-1.18h3.6c.85-3.43-3.13-2.03-3.74-4.96-.91-4.46,5.43-4.86,5.85-2.85.38,1.84-3.32-.3-3.8,1.27-.63,2.01,4.44,1.58,4.14,5.39-.03.35-.65,2.14-.85,2.33Z"/>
      <path d="M179.55,183.24c5.41-1.08,5.72,7.93,1.11,8.25-4.86.33-4.6-7.56-1.11-8.25ZM179.87,184.87c-1.06.33-1.14,5.11.83,5.07,1.74-.93,1.26-5.71-.83-5.07Z"/>
      <path d="M154.58,183.25c4.93-1,5.5,7.87,1.07,8.3s-4.69-7.56-1.07-8.3ZM154.91,184.87c-.99.31-1.12,5.39.41,5.07,1.51-.52,1.74-5.75-.41-5.07Z"/>
      <path d="M150.88,191.21l-2.06-.69-.27-5.65c-2.56-.34-1.12,4.77-1.48,6.35h-2.12v-7.62c1.09.26,5.92-1.19,5.92.63v6.98Z"/>
      <path d="M243.43,190.66c-4.56,3.84-8.45-5.08-3.58-7.17,4.61-1.97,5.89,5.22,3.58,7.17ZM240.84,184.9c-3.57,4.82,2.75,7.86,1.24.38l-1.24-.38Z"/>
      <path d="M236.78,191.21l-2.06-.69-.27-5.65c-3.35-.45.66,7.35-3.59,6.35v-7.61c1.09.26,5.92-1.19,5.92.63v6.98Z"/>
      <path d="M203.24,183.24c4.92-1.02,5.72,8.18.67,8.25-4.33.06-4.26-7.51-.67-8.25ZM203.57,184.87c-.96.3-1.33,5.75.84,5.07.96-.3,1.33-5.75-.84-5.07Z"/>
      <path d="M98.84,183.59h2.12s.05,5.65.05,5.65l1.64.27v-5.92h2.12v7.61c-1.27-.6-5.92,1.26-5.92-1.06v-6.56Z"/>
      <path d="M208.01,183.59c1.35.23,5.92-1.27,5.92,1.06v6.56h-2.12s-.06-5.64-.06-5.64c-2.78-2.75-1.17,3.37-1.69,4.95l-2.06.69v-7.61Z"/>
      <path d="M131.42,183.59v5.92h2.12v-5.92h2.12v7.61c-3.25-.73-5.82,2.14-6.35-2.75-.11-1.06-.33-4.48.68-4.81l1.43-.05Z"/>
      <path d="M124.54,183.25c5.1-1.04,5.72,7.85,1.07,8.3s-4.69-7.56-1.07-8.3ZM124.86,184.87c-.91.28-.86,4.05-.44,4.66,1.96,2.88,3.67-5.65.44-4.66Z"/>
      <path d="M117.39,183.65l.91,3.75c1.12.12.67-.02.85-.62.51-1.69.21-3.75,2.53-3.18-1.09,3.25-1.12,11.12-5.92,10.15-.49-2.07,1.94-1.08,1.93-2.74,0-1.1-2.66-7.14-2.35-7.4l2.05.06Z"/>
      <path d="M174.15,187.4l.91-3.75c.78-.04,1.7-.52,1.64.58s-1.99,7.48-2.61,8.4c-.92,1.39-1.76,1.18-3.32,1.11-.41-1.81.98-1.32,1.58-1.8,1.13-.91-1.6-6.9-2.01-8.35l2.14.18,1.66,3.62Z"/>
      <path d="M186.43,183.59v5.92h2.12v-5.92h2.12v7.61c-1.08-.71-5.92,1.04-5.92-.63v-6.98h1.69Z"/>
      <path d="M96.72,181.9l.04,1.67,1.24.23-.07,1.44-1.24.27c.2,1.12-.24,2.72.09,3.73.23.7,1.63.45,1.21,1.74-.1.32-1.1.57-1.42.53-2.8-.41-1.78-3.65-1.98-5.58-.06-.62-.83-1.11-.75-1.62s1.1-1.41.79-2.39l2.09-.03Z"/>
      <path d="M220.28,181.9l.04,1.67,1.23.02c.47,1.47-.95,1.39-1.18,1.77s-.2,3.35-.03,3.89c.23.7,1.63.45,1.21,1.74-.1.32-1.1.57-1.42.53-2.8-.41-1.78-3.65-1.98-5.58-.06-.62-.83-1.11-.75-1.62s1.1-1.41.79-2.39l2.09-.03Z"/>
      <path d="M216.47,184.02h-1.69c-.54-4.51,2.22-4.53,1.69,0Z"/>
      <path d="M150.04,106.61h-1.69c-.23-.22.22-4.67,0-5.64-.09-.39-.99-.13-.86-.89.03-.17,1.01-3.04,1.08-3.19.51-1.01,1.77-.9,2.74-.85.91.87-3.74,3.32.42,2.96-.14-1.17.1-2.62,1.28-3.16,2.26-1.03,3.84,1.06.81,1.71-.55,1.67,1.18,1.68,1.29,2.1l-.21.65c-2.18.18-.5,5.78-1.06,6.33h-2.12v-5.92h-1.69v5.92Z"/>
      <path d="M203.36,103.23c1.44-.91.52-5.16,2.96-3.96l.85,3.96c1.61-.95.18-5.61,2.77-3.81l-1.56,7.14-2.04.03c-.23-.21-.03-3.56-1.29-3.78l-.63,3.39-1.88.38-1.68-6.91c2.3-2.31,2.31,2.19,2.49,3.56Z"/>
      <path d="M134.75,96.51l.05,1.64-2.68-.38c-2.53,2.45,1.77,2.66,2.64,4.01,2.23,3.47-2.09,6.47-5.4,4.77l-.05-1.64c.14-.17,3.66,1.48,3.84-.64,0-2.18-2.73-1.88-3.52-3.69-1.54-3.55,2.13-5.29,5.13-4.07Z"/>
      <path d="M199.44,106.08c-.37.4-1.99.95-2.59.94-4.72-.12-4.4-9.69,1.56-7.93,2.31.68,2.44,5.48,1.04,6.99ZM197.81,105.3c2.07-5.53-2.89-7.34-2.02-.65l.63.64h1.39Z"/>
      <path d="M165.99,99.09c5.83-1.73,5.87,7.17,1.93,7.88-4.88.88-4.86-7.01-1.93-7.88ZM168.19,105.3c1.94-5.38-2.85-7.41-2.02-.65l.63.64h1.39Z"/>
      <path d="M182.2,96.04v5.92c1.07-.33,1.37-2.31,2.11-2.76.67-.41,1.68-.04,1.69.43,0,.39-1.65,1.91-1.65,2.96,0,.91,2.07,3.66,1.66,4.02-2.26.46-2.29-1.5-3.18-2.96-1.28-.39-.31,2.66-.63,2.97h-1.69v-10.58h1.69Z"/>
      <path d="M177.12,106.61c-2.58-.78-5.48,2.22-5.92-1.9-.17-1.56-.63-7.17,1.91-5.3l.2,5.93,1.43-.05c1.33-.44.43-5.02.69-6.3h1.69v7.62Z"/>
      <path d="M192.77,106.61h-1.69v-5.92h-2.12v5.92h-2.12v-6.98l.7-.59c1.76.65,3.84-.87,5.23.59v6.98Z"/>
      <path d="M146.65,106.61c-2.58-.78-5.48,2.22-5.92-1.9-.17-1.56-.63-7.17,1.91-5.3l.2,5.93,1.43-.05c1.33-.44.43-5.01.69-6.29.47-.18,1.69.18,1.69.63v6.98Z"/>
      <path d="M160.2,103.65c1.03-.61.96-3.93,1.66-4.46.6-.46,1.68,0,1.71.44.03.47-2.71,8.47-2.99,8.85-.74,1.01-1.78.65-2.93.67l.3-1.27,1.21-.38c.93-1.27-1.67-6.17-1.91-7.83l1.04-.67c1.39,0,1.64,3.54,1.91,4.66Z"/>
      <path d="M138.75,98.87c.2.27.64.36.92.54l.21.64c-2.21.84-.97,3.09-1.3,5.06l.97.24c.92.13.46,1.63-1.16,1.62-2.72-.02-1.71-3.73-1.91-5.63-.07-.62-.83-1.11-.75-1.62s1.14-1.43.77-2.41c2.19-.42,1.62.72,2.24,1.56Z"/>
    </g>
  </g>
</svg>